<?xml version="1.0"?>
<svg width="512" height="512" xmlns="http://www.w3.org/2000/svg" xmlns:svg="http://www.w3.org/2000/svg">
 <g>
  <g stroke="null" id="svg_2">
   <path stroke="null" d="m245.79941,9.647026c-209.618422,0 -212.84941,238.640706 -212.84941,238.640706c30.496131,30.496131 79.584709,50.789111 109.570654,62.352688c0,0 -10.656625,49.598763 0,60.255389c6.291999,6.291948 16.551808,-0.056659 22.843756,-6.348658c8.559326,-8.559275 0,-48.351655 0,-48.351655l115.976021,9.522936c31.856557,40.132486 53.283227,63.259639 67.737685,76.693827c0,0 -16.665176,77.600778 0,94.265904c6.291948,6.291999 29.192414,6.291999 35.484362,0c14.171061,-14.171061 0,-80.264871 0,-80.264871c56.117399,-26.301532 71.138752,-107.303327 74.199661,-148.73953c19.045923,-260.577511 -212.962728,-258.026736 -212.962728,-258.026736zm135.021894,368.901158c-13.26411,14.737905 -34.860808,-23.693997 -34.860808,-23.693997c7.482296,-13.604267 31.289713,-27.661959 40.869359,-29.135754c51.129168,-7.652375 -6.008551,52.829752 -6.008551,52.829752z" id="svg_1" fill="#ffffff"/>
  </g>
 </g>
</svg>