<?xml version="1.0" encoding="iso-8859-1"?>
<!-- Generator: Adobe Illustrator 19.0.0, SVG Export Plug-In . SVG Version: 6.00 Build 0)  -->
<svg xmlns="http://www.w3.org/2000/svg" xmlns:xlink="http://www.w3.org/1999/xlink" version="1.1" id="Capa_1" x="0px" y="0px" viewBox="0 0 512 512" style="enable-background:new 0 0 512 512;" xml:space="preserve" width="512px" height="512px">
<g>
	<g>
		<path d="M434.71,67.69c-36.492-24.227-81.975-40.159-131.288-46.396c26.486,29.709,42.245,72.978,42.245,118.697l-0.035,1.018    c-0.027,0.4-0.659,9.643-1.394,17.73c26.121,2.313,50.345,5.657,71.47,9.937c1.632,0.331,3.222,0.662,4.776,0.995L305.015,368.755    c8.038,10.372,12.867,23.345,12.973,37.428l132.609-228.636c24.909,8.072,30.552,15.095,31.403,16.378v14.398h30v-15    C512,145.396,484.551,100.779,434.71,67.69z" fill="#FFFFFF"/>
	</g>
</g>
<g>
	<g>
		<path d="M314.307,156.633c0.63-6.832,1.212-15.042,1.359-17.149c-0.136-46.473-19.081-89.326-49.512-111.931L256,20.01    l-10.154,7.543c-28.704,21.323-47.135,60.18-49.303,103.942c-0.218,4.392-0.118,9.113,0.297,14.032    c0.321,3.808,1.001,11.075,1.002,11.087l-29.749,2.783l50.855,197.579c8.047-6.016,17.6-10.119,27.979-11.648L198.34,156.554    c18.674-1.03,38.017-1.564,57.66-1.564s38.986,0.534,57.66,1.564l-48.588,188.773c10.379,1.529,19.932,5.632,27.979,11.648    l50.863-197.612L314.307,156.633z" fill="#FFFFFF"/>
	</g>
</g>
<g>
	<g>
		<path d="M96.292,168.677c21.165-4.288,45.441-7.637,71.618-9.95c-0.179-1.923-0.693-7.486-0.963-10.68    c-0.527-6.247-0.65-12.316-0.366-18.038c2.098-42.357,17.381-81.26,41.945-108.708C159.234,27.542,113.77,43.471,77.29,67.69    C27.449,100.779,0,145.396,0,193.323v15h30v-14.398c0.851-1.283,6.494-8.305,31.403-16.378l132.609,228.636    c0.106-14.083,4.934-27.056,12.973-37.428L91.516,169.672C93.07,169.339,94.66,169.008,96.292,168.677z" fill="#FFFFFF"/>
	</g>
</g>
<g>
	<g>
		<path d="M275.65,431.904c7.513-5.856,12.35-14.984,12.35-25.247c0-17.673-14.327-32-32-32c-17.673,0-32,14.327-32,32    c0,10.263,4.837,19.391,12.35,25.247c-18.523,7.707-31.55,25.973-31.55,47.287v12.8h102.4v-12.8    C307.2,457.875,294.173,439.609,275.65,431.904z" fill="#FFFFFF"/>
	</g>
</g>
<g>
</g>
<g>
</g>
<g>
</g>
<g>
</g>
<g>
</g>
<g>
</g>
<g>
</g>
<g>
</g>
<g>
</g>
<g>
</g>
<g>
</g>
<g>
</g>
<g>
</g>
<g>
</g>
<g>
</g>
</svg>
