<?xml version="1.0" encoding="iso-8859-1"?>
<!-- Generator: Adobe Illustrator 19.0.0, SVG Export Plug-In . SVG Version: 6.00 Build 0)  -->
<svg xmlns="http://www.w3.org/2000/svg" xmlns:xlink="http://www.w3.org/1999/xlink" version="1.1" id="Layer_1" x="0px" y="0px" viewBox="0 0 503.607 503.607" style="enable-background:new 0 0 503.607 503.607;" xml:space="preserve" width="512px" height="512px">
<g>
	<g>
		<g>
			<rect x="50.362" y="326.719" width="193.049" height="41.967" fill="#FFFFFF"/>
			<rect x="260.198" y="326.719" width="193.049" height="41.967" fill="#FFFFFF"/>
			<rect x="50.362" y="385.473" width="402.885" height="50.361" fill="#FFFFFF"/>
			<path d="M243.409,191.706c-1.368-0.21-2.736-0.453-4.079-0.764c-0.739-0.176-1.477-0.378-2.207-0.579     c-1.293-0.361-2.577-0.764-3.844-1.209c-0.705-0.252-1.41-0.504-2.107-0.781c-1.36-0.537-2.703-1.15-4.029-1.788     c-0.546-0.269-1.108-0.504-1.654-0.789c-1.855-0.957-3.676-1.998-5.464-3.148c-0.235-0.151-0.453-0.319-0.68-0.47     c-1.561-1.024-3.097-2.107-4.6-3.265c-0.579-0.436-1.141-0.915-1.712-1.368c-1.15-0.932-2.291-1.888-3.416-2.887     c-0.613-0.546-1.217-1.108-1.821-1.67c-1.083-1.016-2.149-2.065-3.198-3.139c-0.562-0.579-1.133-1.15-1.687-1.746     c-1.175-1.251-2.325-2.552-3.458-3.886c-0.394-0.453-0.797-0.89-1.183-1.351c-1.511-1.813-2.996-3.693-4.449-5.632     c-0.277-0.369-0.546-0.764-0.831-1.15c-1.158-1.578-2.308-3.19-3.433-4.843c-0.462-0.688-0.915-1.393-1.377-2.09     c-0.923-1.393-1.838-2.812-2.728-4.255c-0.478-0.764-0.948-1.536-1.41-2.308c-0.89-1.477-1.754-2.963-2.61-4.474     c-0.411-0.73-0.831-1.452-1.234-2.191c-1.007-1.813-1.981-3.651-2.946-5.514c-0.218-0.428-0.453-0.856-0.68-1.293     c-1.183-2.325-2.333-4.675-3.458-7.051c-0.26-0.554-0.504-1.116-0.764-1.67c-0.848-1.821-1.679-3.651-2.484-5.498     c-0.361-0.806-0.705-1.62-1.049-2.434c-0.697-1.628-1.385-3.273-2.056-4.919c-0.344-0.839-0.688-1.679-1.024-2.526     c-0.672-1.695-1.326-3.399-1.972-5.103c-0.285-0.747-0.579-1.494-0.856-2.249c-0.806-2.157-1.578-4.323-2.333-6.48     c-0.092-0.269-0.193-0.546-0.294-0.814c-0.856-2.468-1.67-4.935-2.468-7.386c-0.185-0.579-0.361-1.15-0.546-1.729     c-0.588-1.847-1.158-3.693-1.712-5.523c-0.235-0.772-0.453-1.536-0.68-2.3c-0.495-1.67-0.974-3.324-1.435-4.977     c-0.21-0.755-0.42-1.502-0.621-2.249c-0.47-1.729-0.932-3.441-1.368-5.137c-0.159-0.604-0.319-1.217-0.47-1.813     c-1.167-4.591-2.208-9.04-3.122-13.304c-0.117-0.554-0.227-1.091-0.344-1.637c-0.327-1.561-0.638-3.106-0.932-4.608     c-0.126-0.638-0.252-1.276-0.369-1.905c-0.134-0.697-0.243-1.368-0.369-2.056c26.263,25.357,64.042,39.894,105.959,39.894     s79.696-14.537,105.959-39.894c-0.126,0.688-0.235,1.36-0.369,2.056c-0.117,0.63-0.243,1.267-0.369,1.905     c-0.294,1.502-0.604,3.047-0.932,4.608c-0.118,0.546-0.227,1.083-0.344,1.637c-0.915,4.264-1.956,8.712-3.122,13.304     c-0.151,0.596-0.311,1.209-0.47,1.813c-0.436,1.695-0.898,3.408-1.368,5.137c-0.201,0.747-0.411,1.494-0.621,2.249     c-0.462,1.654-0.94,3.307-1.435,4.977c-0.227,0.764-0.445,1.528-0.68,2.3c-0.554,1.83-1.125,3.676-1.712,5.523     c-0.185,0.579-0.361,1.15-0.546,1.729c-0.797,2.451-1.612,4.919-2.468,7.386c-0.101,0.269-0.201,0.546-0.294,0.814     c-0.755,2.157-1.528,4.323-2.333,6.48c-0.277,0.755-0.571,1.502-0.856,2.249c-0.646,1.704-1.301,3.408-1.972,5.103     c-0.336,0.848-0.68,1.687-1.024,2.526c-0.671,1.645-1.36,3.29-2.056,4.919c-0.344,0.814-0.688,1.628-1.049,2.434     c-0.806,1.847-1.637,3.676-2.484,5.498c-0.26,0.554-0.504,1.116-0.764,1.67c-1.125,2.375-2.275,4.726-3.458,7.051     c-0.227,0.436-0.462,0.865-0.68,1.293c-0.965,1.863-1.939,3.701-2.946,5.514c-0.403,0.739-0.823,1.46-1.234,2.191     c-0.856,1.511-1.721,2.996-2.61,4.474c-0.462,0.772-0.932,1.544-1.41,2.308c-0.89,1.444-1.805,2.862-2.728,4.255     c-0.462,0.697-0.915,1.402-1.377,2.09c-1.125,1.654-2.275,3.265-3.433,4.843c-0.285,0.386-0.554,0.781-0.831,1.15     c-1.452,1.939-2.938,3.819-4.448,5.632c-0.386,0.462-0.789,0.898-1.183,1.351c-1.133,1.335-2.283,2.635-3.458,3.886     c-0.554,0.596-1.125,1.167-1.687,1.746c-1.049,1.074-2.115,2.124-3.198,3.139c-0.604,0.562-1.209,1.125-1.821,1.67     c-1.125,0.999-2.266,1.956-3.416,2.887c-0.571,0.453-1.133,0.932-1.712,1.368c-1.502,1.158-3.038,2.241-4.6,3.265     c-0.227,0.151-0.445,0.319-0.68,0.47c-1.788,1.15-3.609,2.191-5.464,3.148c-0.546,0.285-1.108,0.52-1.654,0.789     c-1.326,0.638-2.669,1.251-4.029,1.788c-0.697,0.277-1.402,0.529-2.107,0.781c-1.267,0.445-2.552,0.848-3.844,1.209     c-0.73,0.201-1.469,0.403-2.207,0.579c-1.343,0.311-2.711,0.554-4.079,0.764v51.082H453.22     c-0.126-9.342-3.232-22.763-7.185-30.947c-19.523-40.263-34.782-122.343-34.757-186.846c0-6.673-2.602-12.951-7.344-17.677     C399.208,2.602,392.93,0,386.265,0h-16.955c-0.059,0-0.109,0.034-0.176,0.034c-1.016,0.025-2.006,0.218-2.938,0.596     c-0.269,0.109-0.478,0.285-0.722,0.42c-0.638,0.327-1.234,0.705-1.771,1.192c-0.285,0.252-0.495,0.537-0.739,0.823     c-0.243,0.294-0.546,0.529-0.755,0.856c-21.68,34.405-62.951,54.935-110.407,54.935S163.075,38.324,141.395,3.92     c-0.21-0.336-0.512-0.562-0.755-0.856c-0.243-0.285-0.453-0.571-0.73-0.823c-0.537-0.487-1.141-0.865-1.779-1.2     c-0.252-0.126-0.462-0.302-0.722-0.411c-0.932-0.369-1.914-0.562-2.929-0.588c-0.067,0-0.117-0.042-0.185-0.042h-16.955     c-6.664,0-12.943,2.602-17.668,7.319c-4.742,4.725-7.344,11.004-7.344,17.677C92.352,89.499,77.093,171.579,57.57,211.85     c-3.953,8.175-7.059,21.596-7.185,30.938h193.024V191.706z" fill="#FFFFFF"/>
			<path d="M260.196,503.607h167.869c13.883,0,25.18-11.289,25.18-25.18v-25.801H260.196V503.607z" fill="#FFFFFF"/>
			<rect x="50.362" y="259.571" width="402.885" height="50.361" fill="#FFFFFF"/>
			<path d="M50.36,478.426c0,13.891,11.298,25.18,25.18,25.18h167.869v-50.982H50.36V478.426z" fill="#FFFFFF"/>
		</g>
	</g>
</g>
<g>
</g>
<g>
</g>
<g>
</g>
<g>
</g>
<g>
</g>
<g>
</g>
<g>
</g>
<g>
</g>
<g>
</g>
<g>
</g>
<g>
</g>
<g>
</g>
<g>
</g>
<g>
</g>
<g>
</g>
</svg>
