<svg xmlns="http://www.w3.org/2000/svg" xmlns:xlink="http://www.w3.org/1999/xlink" id="svg" version="1.1" width="400" height="400" display="block">

<g id="svgg"><path id="path0" d="M117.2 31.34C117.2 31.64 117.97 32.2 118.9 32.59L120.6 33.3 118.85 33.64C112.53 34.86 89.69 45.2 93.32 45.2 93.6 45.2 95.35 44.56 97.22 43.77 110.92 37.99 112.52 37.48 120.8 36.16 123.17 35.78 121.65 36.65 118.4 37.53 111.99 39.27 92.27 48.03 93.04 48.8 93.29 49.05 95.6 48.27 99.5 46.62 109.69 42.3 115.45 40.77 123.4 40.24L126.6 40.03 124.8 40.6C123.81 40.92 121.04 41.73 118.64 42.4 112.35 44.18 103.6 47.58 103.6 48.25 103.6 48.97 103.51 48.99 107.96 47.61 115.98 45.14 128.78 42.63 132.14 42.88 133.78 43 133.76 43.01 131 43.71 127.76 44.54 118.55 47.51 117.46 48.09 116.08 48.81 117.36 49.25 119.08 48.64 124.07 46.88 136.68 45.39 141 46.04 142.22 46.23 142.33 46.3 141.48 46.34 138.49 46.49 125.93 50 125.68 50.75 125.49 51.32 125.58 51.32 129.34 50.6 134.5 49.61 135.55 49.83 132 51.16 128.45 52.49 122.57 55.39 122.19 56.02 121.6 56.97 122.51 56.87 125.1 55.69 129.34 53.75 139.94 51.2 143.75 51.2 144.4 51.2 143.89 51.94 143.1 52.15 142.16 52.39 130.54 58.9 129.9 59.54 128.77 60.67 130.84 60.15 134.66 58.36 143.85 54.04 148.78 52.52 143.12 55.75 138.89 58.16 134.74 61.17 135.02 61.63 135.27 62.03 135.54 61.92 137.26 60.73 139.08 59.47 144.54 56.8 145.29 56.8 145.68 56.8 146 56.62 146 56.4 146 56.18 146.34 56 146.75 56 147.16 56 148.17 55.72 148.99 55.38 152.58 53.88 152.12 55.05 148.4 56.9 143.29 59.43 138.54 63.2 140.44 63.2 140.69 63.2 141.9 62.69 143.14 62.06 148.88 59.15 153.15 57.51 152.58 58.43 152.46 58.63 152.14 58.8 151.88 58.81 151.61 58.81 150.79 59.35 150.05 60.01 149.3 60.66 148.57 61.2 148.41 61.2 148.26 61.2 147.03 62.32 145.67 63.69 142.53 66.86 143.04 67.57 146.51 64.84 147.94 63.72 149.31 62.8 149.55 62.8 149.8 62.8 150 62.62 150 62.41 150 62.19 150.45 61.9 151 61.76 151.55 61.63 152 61.35 152 61.16 152 60.96 152.32 60.8 152.72 60.8 153.12 60.8 153.61 60.64 153.82 60.44 154.03 60.25 154.79 59.96 155.5 59.81 157.02 59.49 157.26 60.12 155.91 60.85 153.66 62.06 147.87 67.12 146.69 68.92 145.29 71.06 146.16 70.94 148.46 68.68 154.11 63.12 163.25 58.67 166.76 59.79 168 60.18 167.78 60.68 166.23 60.97 164.65 61.26 156.53 65.3 155.85 66.13 155.6 66.43 154.97 66.97 154.44 67.32 152.76 68.44 149.2 72.06 149.2 72.66 149.2 73.35 150.11 72.93 151.55 71.57 152.69 70.49 159.03 66.8 159.74 66.8 160.01 66.8 160.41 66.64 160.62 66.44 161.49 65.63 169.63 64.32 171.3 64.72 172.52 65.02 172.06 65.58 170.39 65.85 169.51 65.99 168.69 66.26 168.57 66.45 168.45 66.64 167.91 66.8 167.37 66.8 166.83 66.8 166.08 66.96 165.7 67.17 165.31 67.36 164.1 67.84 163 68.22 158.89 69.64 153.11 72.46 152.88 73.17 152.71 73.69 154.53 73.74 155.51 73.25 157 72.51 159.28 71.8 164.6 70.43 168.2 69.51 168.8 69.44 168.8 69.97 168.8 70.17 168.22 70.46 167.51 70.62 166.8 70.78 165.59 71.29 164.81 71.76 164.04 72.23 162.86 72.88 162.2 73.21 161.54 73.53 160.91 73.91 160.8 74.04 160.69 74.17 160.2 74.49 159.7 74.75 158.78 75.24 158.48 76 159.2 76 159.42 76 160.72 75.49 162.1 74.86 164.55 73.74 165.98 73.27 169.59 72.37 171.39 71.92 175.53 71.79 175.91 72.18 176.12 72.39 176.08 72.41 173.2 73.2 169.27 74.29 161.15 77.91 160.9 78.7 160.66 79.41 161.67 79.32 163.98 78.41 169.37 76.28 176.56 75.61 179.71 76.93 180.67 77.33 180.25 77.41 176.71 77.45 171.65 77.52 163.2 80.39 163.2 82.04 163.2 82.5 162.96 82.53 166.6 81.6 169.93 80.75 175.43 80.53 177.44 81.17 178.08 81.37 179.32 81.67 180.2 81.84 181.56 82.1 181.05 82.22 176.8 82.65 168.79 83.48 167.6 83.67 167.6 84.17 167.6 84.67 173.01 85.6 175.95 85.6 177.67 85.6 180.98 86.51 182.8 87.49 183.7 87.98 183.57 88.01 181.4 87.79 180.08 87.66 177.02 87.41 174.6 87.25 172.11 87.07 169.59 86.67 168.8 86.31 162.78 83.61 157.83 82.18 155.47 82.47 154.14 82.63 153.98 83.26 155.15 83.8 156.66 84.5 156.06 84.91 153.93 84.63 150.55 84.18 141.14 85.17 141.29 85.96 141.38 86.44 142.04 86.65 143.87 86.8 147.9 87.13 147.25 87.6 142.77 87.6 138.97 87.61 133.78 88.02 129.9 88.63 127.99 88.94 127.84 89.99 129.7 90.03 131.72 90.07 130.31 90.52 122.47 92.37 112.75 94.65 111.32 95.1 111.1 95.96 110.96 96.46 110.09 96.9 108.24 97.41 106.77 97.8 105.48 98.28 105.36 98.46 104.8 99.37 105.99 99.38 110.88 98.52 116.34 97.56 119.81 97.4 116.6 98.26 113.96 98.97 104.05 101.13 100.2 101.85 93.22 103.13 80.75 108.65 81.34 110.19 81.46 110.5 80.06 111.38 77.64 112.52 72.88 114.77 66.4 118.96 66.4 119.79 66.4 120.63 66.55 120.59 69.16 119.06 73.23 116.67 82.61 112.8 84.32 112.8 85.37 112.8 79.23 116.56 77.2 117.16 73.88 118.14 70.8 120.03 62.85 126 58.77 129.06 59.59 129.75 64.04 127 68.16 124.46 68.12 124.73 63.82 128.62 57.84 134.01 54.12 138.4 55.52 138.4 55.69 138.4 56.71 137.5 57.79 136.41 60.37 133.79 60.38 133.74 57.39 140.42 55.97 143.6 54.8 146.44 54.8 146.73 54.8 148.05 55.85 146.62 58.28 141.99 62.22 134.51 65.65 129.95 62.23 136.75 59.78 141.6 54.5 155.83 54.97 156.3 55.32 156.65 55.79 156.02 56.39 154.4 57.24 152.12 62.92 140.39 63.09 140.56 63.18 140.65 62.79 142.22 62.24 144.06 60.94 148.34 60.01 152.77 60.28 153.46 60.68 154.52 61.15 153.97 61.78 151.7 63.59 145.14 67.71 137.05 72.54 130.56 75.03 127.22 75.18 127.47 73.47 132.06 71.64 136.98 68.66 147.19 68.97 147.5 69.42 147.95 69.86 147.02 71.59 142 73.43 136.64 76.82 129.16 79.49 124.58 82.71 119.07 82.69 119.9 79.45 126.4 74.49 136.33 71.88 143.19 71.83 146.36 71.79 149.75 72.52 149.94 73.12 146.71 73.58 144.23 74.94 141.27 80.7 130.2 85.21 121.55 93.62 111.12 96.76 110.29 97.99 109.97 97.8 110.45 95.97 112.22 91.47 116.57 88.44 121.5 83.22 132.95 79.36 141.44 79.3 141.6 80.16 141.6 80.87 141.6 83.9 136.85 87.18 130.6 90.39 124.48 92.75 121.08 96.82 116.69 100.23 113.03 102.88 110.94 100.7 113.63 94.5 121.31 89.69 128.66 87.25 134.17 85.62 137.86 86.9 137.17 89.6 132.89 96.39 122.15 104.27 113.12 111.08 108.26 116.31 104.54 116.46 104.61 112.69 109.07 108.77 113.72 98 127.89 98 128.4 98 129.87 99.67 128.2 109.62 116.8 117.59 107.67 124.8 100.66 125.5 101.36 125.6 101.47 124.17 103.32 122.32 105.48 117.03 111.64 109.6 121.91 109.6 123.07 109.6 124.23 110.72 123.44 113.2 120.54 122.89 109.22 132.72 99.2 134.14 99.2 134.53 99.2 134.44 99.33 131.31 103.45 130.16 104.96 128.86 106.74 128.41 107.4 127.96 108.06 125.7 111.16 123.39 114.3 119.72 119.28 116.4 124.52 116.4 125.33 116.4 126.14 117.37 125.33 118.85 123.3 120.98 120.39 127.01 113.26 128.26 112.19 128.78 111.74 129.2 111.17 129.2 110.92 129.2 110.67 129.35 110.41 129.52 110.33 129.7 110.26 130.9 108.77 132.18 107.02 134.78 103.49 140.8 97.2 141.58 97.2 141.85 97.2 141.52 97.88 140.83 98.7 140.14 99.53 138.74 101.28 137.7 102.6 136.67 103.92 135.69 105.06 135.51 105.13 135.34 105.21 135.2 105.42 135.2 105.62 135.2 105.81 134.48 107.01 133.6 108.28 132.71 109.56 131.77 110.93 131.5 111.34 131.22 111.75 130 113.46 128.78 115.14 125.85 119.19 125.84 119.2 126.57 119.2 126.9 119.2 128.55 117.54 130.22 115.5 131.9 113.47 133.57 111.44 133.93 111 134.3 110.56 135.23 109.39 136 108.4 137.37 106.63 142.92 100.83 142.12 102 141.89 102.33 140.87 103.71 139.85 105.06 138.83 106.42 138 107.72 138 107.96 138 108.2 137.86 108.4 137.7 108.4 137.53 108.4 137.21 108.76 137 109.19 132.14 118.91 131.76 121.4 136.23 114.17 137.53 112.06 138.87 110.04 139.2 109.67 139.53 109.3 140.34 108.28 140.99 107.4 141.65 106.52 142.59 105.42 143.09 104.95 143.59 104.49 144 103.97 144 103.8 144 103.27 154.01 93.47 154.27 93.74 154.41 93.87 153.76 94.84 152.83 95.89 151.91 96.94 151.02 97.98 150.86 98.2 149.37 100.24 144.54 106.23 144.31 106.33 144.14 106.41 144 106.68 144 106.94 144 107.2 143.6 107.86 143.1 108.41 140.44 111.37 138.33 114.06 138.52 114.26 139.32 115.06 144.12 111.01 147.25 106.9 148.21 105.63 149.1 104.51 149.23 104.4 149.36 104.29 150.61 102.85 152 101.2 157.61 94.53 160.64 92.31 163.88 92.48L166.11 92.6 162.95 94.59C161.22 95.69 159.36 96.95 158.81 97.39 155.75 99.9 151.2 104.4 148.87 107.2 148.42 107.75 147.52 108.83 146.89 109.6 144.7 112.25 143.59 114.15 144 114.56 144.26 114.82 144.91 114.33 145.86 113.18 149.59 108.67 162.83 96.7 163.43 97.3 164.03 97.9 154.6 108.06 152.7 108.84 151.42 109.37 151.23 110.4 152.41 110.4 154.6 110.4 157.49 108.2 164 101.6 170.12 95.38 173.4 92.8 175.19 92.8 175.79 92.8 174.74 94.36 173.98 94.61 173.63 94.72 172.64 95.46 171.78 96.25 170.91 97.05 169.3 98.47 168.2 99.42 167.1 100.36 164.67 102.64 162.8 104.47 160.93 106.31 158.33 108.75 157.02 109.9 155.26 111.45 154.76 112.12 155.09 112.45 155.42 112.78 154.94 113.2 153.27 114.04 152.02 114.67 149.38 116.59 147.39 118.31 145.4 120.02 143.11 121.74 142.29 122.13 140.66 122.91 140.34 123.6 141.61 123.6 142.76 123.6 146.05 121.86 149.58 119.39 153.48 116.66 155.95 115.37 157.86 115.04 159.75 114.72 159.02 115.47 156 116.95 151.7 119.07 145.81 122.93 143 125.48 142.57 125.88 140.95 127.31 139.4 128.66 136.46 131.24 133.77 134.3 134.13 134.67 134.25 134.78 135.93 133.49 137.87 131.78 141.39 128.7 146.66 124.92 146.98 125.25 147.08 125.34 145.05 127.38 142.48 129.77 139.91 132.16 137.17 134.89 136.4 135.82 135.63 136.76 133.79 139 132.3 140.81 130.82 142.61 129.6 144.33 129.6 144.64 129.6 145.55 130.68 145.28 131.58 144.14 132.67 142.75 132.96 143.11 132.21 144.93 131.87 145.72 131.6 146.74 131.6 147.19 131.6 148.39 132.75 148.18 133.23 146.9 133.99 144.9 136.1 142.23 138.62 140.1 141.54 137.63 142.23 137.39 140.35 139.52 138.44 141.67 137.23 143.2 135.4 145.82 134.52 147.07 132.76 149.42 131.5 151.04 130.24 152.66 129.2 154.08 129.2 154.19 129.2 155.01 130.77 153.91 133.76 151 135.69 149.13 137.34 147.6 137.43 147.6 137.8 147.6 137.55 148.03 136.46 149.29 132.5 153.83 129.57 158.17 129.79 159.17 129.99 160.04 129.64 160.58 127.61 162.59 126.29 163.9 125.2 165.12 125.2 165.29 125.2 166.14 126.63 165.36 129.08 163.17 132.68 159.96 134.47 158.65 133.6 159.86 127.51 168.38 126.54 170 127.53 170 127.71 170 129.29 168.01 131.03 165.58 133.84 161.66 134.22 161.27 134.33 162.22 134.48 163.45 132.18 167.09 126.64 174.39 124.73 176.92 123.36 179.05 123.6 179.13 123.85 179.22 124.09 179.22 124.15 179.14 124.48 178.65 133.05 168.85 133.72 168.2L134.54 167.4 133.93 168.4C133.59 168.95 132.46 170.71 131.42 172.32 129.01 176.06 124.66 185.04 125 185.59 125.42 186.28 125.85 185.76 127.71 182.27 129.81 178.32 133.95 172 134.44 172 134.63 172 133.35 174.88 131.59 178.39 129.83 181.91 128.05 185.64 127.62 186.69 127.2 187.74 126.21 190.12 125.43 191.99 123.84 195.75 123.78 196 124.51 196 124.79 196 127.18 191.6 129.81 186.23 132.45 180.85 134.74 176.44 134.9 176.43 135.51 176.37 135.17 177.69 133.94 180.11 132.26 183.41 126.8 197.17 126.8 198.08 126.8 199.66 127.59 198.59 129.81 194.01 132.57 188.33 132.76 188.21 131.17 193.16 129.65 197.88 129.27 200.4 130.06 200.4 130.43 200.4 131.02 199.16 131.73 196.9 133.47 191.35 136.22 185.91 136.59 187.28 136.81 188.1 136.39 189.61 134.87 193.48 132.66 199.11 131.27 203.28 131.11 204.76 130.95 206.13 131.84 206.25 132.3 204.92 133.12 202.58 135.3 197.57 135.44 197.7 135.52 197.78 135.23 200.51 134.79 203.77 134.36 207.02 134 209.94 134 210.24 134 210.94 134.77 210.98 134.98 210.3 135.06 210.03 135.98 206.88 137.02 203.3 139.13 196.05 139.1 196.09 140.33 198.63 141.06 200.13 141.36 200.4 142.03 200.19 142.67 199.99 143.33 200.47 145.18 202.47 148.49 206.04 149.35 205.26 146.26 201.49 142.95 197.45 140.4 193.42 140.4 192.22 140.4 191.63 140.21 190.79 139.97 190.35 138.88 188.31 140 188.99 141.36 191.19 143.7 194.98 148.18 199.48 148.96 198.83 149.75 198.18 149.52 197.7 144.81 190.6 140.61 184.24 137.36 176.46 140.72 180.79 142.97 183.69 144.93 185.6 145.65 185.6 146.8 185.6 146.61 185.05 143.62 179.84 142.09 177.18 140.73 174.64 140.59 174.2L140.34 173.4 140.98 174.2C141.33 174.64 142.43 176.13 143.41 177.5 144.64 179.22 145.46 180 146.04 180 147.31 180 146.93 178.52 143.88 171.6 142.35 168.12 140.79 163.54 141.02 163.17 141.44 162.49 141.84 162.79 142.33 164.15 143.29 166.8 146.89 170.25 148.17 169.76 149.01 169.43 148.97 169.05 147.87 167.29 145.52 163.51 144.71 160.5 144.66 155.4 144.6 149.24 145.15 142.88 145.87 141.6 146.39 140.67 146.41 140.73 146.19 142.6 144.77 154.75 145.86 163.08 149.3 166.31 151.26 168.14 151.46 166.99 150.22 161.13 148.53 153.23 148.27 149.9 148.78 143.2 149.34 135.82 149.52 134.77 150.41 133.58 151.45 132.21 151.67 132.73 150.93 134.82 149.57 138.61 149.87 149.3 151.49 155.4 152.26 158.29 152.15 158.13 153.19 157.8 154.03 157.54 154.04 157.43 153.93 146.87L153.82 136.2 155.93 130C157.09 126.59 158.3 123.45 158.61 123.03 159.78 121.47 159.63 122.83 158.26 126.31 155.82 132.47 153.82 141.6 154.91 141.6 155.26 141.6 155.96 140.1 156.81 137.58 157.55 135.36 158.3 133.46 158.48 133.35 158.65 133.24 158.8 132.92 158.8 132.63 158.8 131.91 162 125.06 162.23 125.29 162.33 125.4 162.05 126.99 161.61 128.84 160.65 132.86 160.6 134 161.38 134 161.73 134 162.16 133.31 162.43 132.3 163.16 129.61 165.66 123.13 165.88 123.35 165.99 123.46 165.87 124.17 165.62 124.93 165.37 125.7 165.01 127.19 164.81 128.26 164.23 131.47 163.39 134.51 162.62 136.11 162.22 136.95 161.98 137.72 162.09 137.82 162.92 138.66 165.45 134.66 166.59 130.71 167.19 128.64 168 127.3 168 128.38 168 129.8 169.47 128.58 170.08 126.64 171.25 122.97 173.97 117.66 175.42 116.26 176.18 115.52 176.8 114.78 176.8 114.62 176.8 114.12 179.28 111.15 179.51 111.37 179.62 111.49 179.28 112.26 178.75 113.09 178.22 113.92 177.27 115.68 176.66 117 176.04 118.32 175.36 119.72 175.16 120.11 174.33 121.69 172 130.04 172 131.46 172 132.46 173.18 132.01 173.45 130.9 173.59 130.29 173.84 129.62 174.01 129.4 174.17 129.18 174.44 128.55 174.61 128 175.06 126.51 176.88 122.75 177.06 122.93 177.15 123.02 176.86 124.65 176.41 126.56 175.52 130.38 175.39 132 175.99 132 176.21 132 176.49 131.51 176.62 130.9 176.74 130.29 177.02 129.49 177.22 129.1 177.43 128.72 177.6 128.13 177.6 127.78 177.6 126.81 181.43 117.7 182.05 117.2 182.18 117.09 182.42 116.6 182.57 116.1 182.73 115.61 183.02 115.2 183.23 115.2 183.43 115.2 183.6 114.98 183.61 114.7 183.61 114.43 184.23 113.48 184.99 112.6L186.37 111 184.89 114.01C181.52 120.84 179.12 127.66 179.92 128.15 180.58 128.56 182.33 126.11 184.05 122.35 185 120.29 185.81 119.87 185.43 121.64 185.27 122.39 185.09 123.54 185.02 124.2 184.95 124.86 184.69 127.2 184.44 129.4 184.18 131.6 183.81 135.02 183.61 137 183.42 138.98 182.97 143.03 182.61 146 182.26 148.97 181.79 153.92 181.57 157 181.34 160.08 181.02 164.31 180.85 166.4 180.45 171.42 180.42 199.24 180.81 205.6 181.78 221.56 183.15 236.39 187.8 281.4 189.64 299.27 191.7 311.41 194.6 321.56 195.38 324.29 195.97 326.56 195.91 326.62 195.85 326.68 192.92 327.18 189.39 327.75 170.02 330.85 154.46 335.39 140.6 341.99 128.51 347.73 105.4 361.5 93.04 370.3 87.78 374.05 81.24 378.13 77.79 379.83 75.79 380.8 74.99 381.6 76.01 381.6 77.64 381.6 87.33 375.92 99.04 368.11 110.76 360.29 128 350.59 138.56 345.87 148.75 341.32 165.87 336.49 180.6 334.01 193.37 331.87 193.75 331.94 183.58 334.61 153.78 342.44 124.91 354.79 104.6 368.39 99.37 371.89 94.99 374.56 89.8 377.42 88.26 378.26 85.47 379.97 83.6 381.22 81.73 382.46 79.61 383.81 78.9 384.22 78.19 384.64 77.6 385.2 77.6 385.49 77.6 386.21 77.42 386.29 82.66 383.27 85.27 381.77 89.2 379.59 91.4 378.42 93.6 377.26 97.07 375.41 99.12 374.31 101.17 373.21 102.95 372.42 103.09 372.55 103.42 372.89 103.63 372.74 98.17 376.06 75.1 390.1 61.78 398.8 63.36 398.8 63.45 398.8 66.65 396.94 70.46 394.66 97.73 378.39 125.18 363.89 134.8 360.68 141.13 358.56 150.95 355.6 151.62 355.6 151.87 355.6 149.68 357.21 146.74 359.18 135.5 366.72 134.91 368.47 144.52 365.83 150.74 364.12 149.88 364.77 140.94 368.55 126.66 374.6 125.1 375.32 122.64 376.98 119.97 378.79 119.19 379.75 119.84 380.4 120.5 381.06 127.8 378.79 147.98 371.64 154.62 369.28 155.19 369.24 152.41 371.31 148.24 374.43 150.31 375.21 155.56 372.5 165.01 367.62 191.21 360.64 213.6 357.04 239.03 352.95 251.67 351.8 282.2 350.8 300.85 350.19 304.72 349.26 302.08 346L301.36 345.11 292.78 345.76C282.61 346.53 263.67 347.46 247 348.01 206.76 349.35 178.29 353.39 148.7 361.96 144.46 363.19 145.49 362.3 152.1 359.02 170.11 350.09 188.13 346.32 233.4 342.01 253.97 340.05 258.65 339.87 280.8 340.16 314.84 340.61 324.59 341.16 330.65 343 333.07 343.74 333.2 343.74 333.2 343.02 333.2 342.45 327.65 340.41 326.08 340.39 325.5 340.39 325.48 340.33 326 340 326.33 339.79 329.35 339.61 332.7 339.61 337.72 339.6 338.8 339.5 338.8 339.03 338.8 338.59 337.98 338.41 335.3 338.27 324.15 337.69 306.19 335.94 305.68 335.39 305.52 335.23 308.19 335.21 311.6 335.35 333.44 336.27 339.37 336.16 339.12 334.86 338.96 334.03 337.08 333.84 322.4 333.21 309.34 332.65 307.04 331.98 316.24 331.43 322.37 331.07 331.73 329.62 332.4 328.94 332.94 328.39 332.79 328.35 331 328.55 323.48 329.4 313 329.25 293.6 328.04 269.39 326.52 264.71 326.18 256.8 325.29 251.82 324.74 247 324.6 232.3 324.6L213.99 324.6 212.75 321.4C207.18 307.02 206.08 303.32 203.61 290.6 201.47 279.6 199.98 272.81 198.39 266.8 197.54 263.6 196.48 258.13 196.02 254.6 194.1 239.91 192.4 226.04 192.24 223.8 192.15 222.48 191.98 221.13 191.87 220.8 191.76 220.47 191.57 218.1 191.45 215.53 191.33 212.97 191.05 208.56 190.82 205.73 189.36 187.53 189.36 174.59 190.8 159 191.01 156.8 191.28 153.2 191.4 151 191.53 148.8 191.8 144.66 192 141.8 192.21 138.94 192.48 134.62 192.59 132.2 193.06 122.26 193.34 118.8 193.66 118.8 193.85 118.8 194 118.94 194.01 119.1 194.07 122.31 194.5 130.44 194.64 131.13 195.11 133.43 195.81 131.57 196.05 127.37 196.36 121.98 196.36 121.98 196.86 123.2 197.09 123.75 197.42 125.97 197.6 128.13 197.91 131.99 198.13 132.81 198.68 132.26 199.64 131.3 199.07 118.09 198.03 117.2 197.64 116.86 196 113.34 196 112.83 196 111.95 197.18 113.47 198.38 115.89 200.1 119.36 200.85 123.4 201.08 130.5 201.46 141.79 203.03 136.02 202.96 123.6 202.95 121.51 203.01 120.16 203.1 120.6 203.18 121.04 203.5 121.94 203.8 122.6 204.1 123.27 204.41 125.62 204.49 127.88 204.57 130.13 204.75 132.08 204.88 132.22 205.88 133.21 206.69 125.42 205.93 122.2 205.78 121.54 205.35 119.78 204.98 118.28 203.79 113.51 204.66 114.95 206.66 121.07L208.59 127 208.59 134.1C208.6 138.65 208.74 141.16 209 141.07 209.78 140.83 210.91 136.55 211.08 133.2 211.17 131.33 211.44 129.42 211.67 128.95 211.96 128.35 211.96 127.5 211.67 126.14 211.28 124.34 211.39 120.87 211.85 120.42 212.72 119.55 213.17 123.29 213.41 133.37 213.52 137.76 213.71 141.45 213.84 141.57 214.52 142.25 215.11 139.95 215.36 135.7 215.52 133.12 215.71 130.64 215.79 130.2 215.87 129.76 215.95 129.07 215.97 128.67 216.03 127.15 216.97 128.34 217.67 130.82 218.51 133.79 218.6 136.64 217.94 138.86 217.42 140.58 217.67 141.17 218.59 140.41 219.11 139.97 219.2 140.07 219.2 141.12 219.2 143.73 220.52 144.61 220.96 142.29 221.27 140.64 221.32 127.73 221.02 125.71 220.81 124.26 220.84 124.28 221.84 126.4 223.33 129.56 224.42 134.04 224.73 138.31 225.13 143.77 225.77 143.11 226 137 226.24 130.7 226.46 130.88 228.4 139 228.66 140.1 228.97 143.21 229.09 145.9 229.22 148.6 229.44 150.8 229.59 150.8 230.58 150.8 231.19 139.61 230.43 135.17 229.47 129.53 229.45 128.94 230.27 129.68 231.9 131.16 232.21 133.58 232.12 144.5 232.01 157.03 232.4 157.93 234.41 149.8 234.69 148.7 235 145.15 235.1 141.9 235.21 138.66 235.38 136 235.48 136 236.47 136 236.89 137.43 236.62 139.92 235.99 145.83 235.68 147.92 235.02 150.6 233.68 156 233.85 161.43 235.21 156.9 236.47 152.69 237.55 148.38 237.95 145.91 238.36 143.4 238.67 143.19 239.4 144.93 240.06 146.52 240.22 150.22 239.63 150.58 239.43 150.71 239.15 151.34 239 151.99 238.86 152.64 238.4 153.88 237.98 154.75 236.69 157.41 235.94 159.99 236.21 160.84 236.56 161.93 237.45 161.18 237.83 159.48 237.98 158.79 238.53 157.54 239.05 156.72 239.57 155.89 240 155.05 240 154.86 240 154.66 240.27 154.27 240.6 154 242.13 152.73 240.33 158.35 237.19 164.65 235.84 167.36 234.98 169.54 235.18 169.74 235.7 170.26 236.09 169.87 237.2 167.75 237.75 166.69 238.34 165.64 238.52 165.41 238.69 165.19 239.14 164.44 239.52 163.76 243.29 156.91 243.4 156.73 243.53 157.6 243.74 158.96 241.98 165.22 240.89 167 240.36 167.88 239.46 169.28 238.9 170.11 237.03 172.88 239.01 172.59 241.2 169.78 242.99 167.48 243.35 168.52 241.85 171.66 240.9 173.63 240.83 174.4 241.57 174.4 242.45 174.4 244.93 169.26 246.58 164 246.96 162.79 247.42 161.44 247.6 161 247.78 160.56 248.04 159.86 248.17 159.44 248.69 157.84 248.76 159.2 248.35 162.82 247.95 166.26 247.7 167 245.59 171 243.54 174.87 242.02 178.39 242.01 179.3 241.99 180.38 243.54 179.38 244.18 177.9 244.82 176.43 247.81 171.78 248.89 170.6 249.4 170.03 248.91 173.75 248.18 175.98 247.54 177.91 245.98 181.27 245.56 181.6 245.42 181.71 245.18 182.22 245.02 182.74 244.64 183.93 245.88 183.82 246.56 182.6 246.8 182.16 247.23 181.66 247.5 181.48 247.78 181.3 248 180.99 248 180.79 248 180.58 248.59 179.47 249.32 178.31 250.84 175.86 251.75 172.87 251.67 170.6 251.59 168.53 252.22 169.49 252.59 172 252.83 173.67 252.7 174.05 250.83 177.16 249.71 179.01 248.8 180.68 248.8 180.87 248.8 181.06 248.64 181.52 248.45 181.91 247.42 183.93 246.81 185.7 247.02 186.03 247.41 186.66 247.96 186.06 249.18 183.65 249.81 182.39 250.62 181.12 250.97 180.83 251.68 180.24 251.77 180.47 251.25 181.51 250.03 183.9 248.81 189.6 249.52 189.6 250.18 189.6 250.8 188.6 250.8 187.54 250.8 186.94 251 186.33 251.23 186.18 251.49 186.02 251.63 186.21 251.59 186.66 251.3 189.32 252.47 189.58 253.62 187.1L254.4 185.4 254.12 191.2C253.74 199.02 253.75 199.37 254.17 199.6 254.63 199.85 255.46 196.01 255.83 191.9 256.07 189.32 256.8 187.42 256.8 189.39 256.8 191.04 259.21 194 260.56 194 260.98 194 260.82 192.96 260.2 191.73 259.35 190.02 259 188 259.55 188 260.44 188 259.38 184.85 256.8 179.86 255.97 178.27 255.75 176.8 256.34 176.8 256.52 176.8 256.86 177.21 257.1 177.7 257.65 178.87 259.62 181.2 260.06 181.2 260.64 181.2 260.43 179.97 259.66 178.86 258.49 177.19 254.7 169.16 254.96 168.91 255.35 168.52 256.78 170.05 258.5 172.71 259.57 174.36 260.27 175.09 260.52 174.84 261.05 174.31 260.25 172.4 258.32 169.55 257.24 167.95 256.8 166.88 256.8 165.82 256.8 164.95 256.23 163.14 255.4 161.43 253.94 158.39 253.73 157.6 254.4 157.6 255.69 157.6 252.77 152.92 249.79 150.2 249.3 149.76 248.71 148.77 248.46 148L248 146.6 248.81 147.6C249.26 148.15 249.92 149.1 250.3 149.7 251.44 151.56 252.71 151.2 251.61 149.33 251.13 148.52 250.73 147.31 250.71 146.65 250.69 145.99 250.33 144.53 249.9 143.42 249.48 142.31 249.04 141.09 248.92 140.7 248.8 140.32 248.55 140 248.35 140 248.16 140 248 139.75 248 139.45 248 139.15 247.73 138.67 247.4 138.4 247.07 138.13 246.8 137.65 246.8 137.35 246.8 137.05 247.07 136.8 247.4 136.8 248.37 136.8 248.09 135.62 247 135.13 246.45 134.88 246 134.54 246 134.38 246 134.22 245.57 133.98 245.05 133.85 244.09 133.61 241.6 131.34 241.6 130.7 241.6 130.38 242.36 130.52 243.94 131.11 244.29 131.25 244.43 131.07 244.34 130.63 244.25 130.21 243.19 129.56 241.6 128.94 240.17 128.39 238.64 127.79 238.2 127.6 237.76 127.42 236.95 127.16 236.4 127.05 235.31 126.81 232.4 124.57 232.4 123.96 232.4 123.44 234.22 123.9 236.64 125.04 239.2 126.25 239.99 126.29 238.98 125.17 237.89 123.98 232.83 121.64 230.66 121.35 229.64 121.21 228.23 120.67 227.53 120.15 225.8 118.87 226.76 118.95 230.74 120.4 238.94 123.4 234.95 119.69 226.41 116.39 225.21 115.92 223.31 115.49 222.2 115.42 219.76 115.28 215.92 113.5 217.6 113.29 218.15 113.22 220.66 113.8 223.19 114.58 227.75 115.98 230.38 115.99 227.03 114.59 226.19 114.24 225.43 113.62 225.32 113.21 225.21 112.8 224.71 112.37 224.21 112.24 222.73 111.87 219.64 110.39 220.9 110.66 222.6 111.01 222.27 110.09 219.9 107.81 217.73 105.72 216.4 104.18 216.4 103.74 216.4 103.6 215.55 102.48 214.5 101.25 209.78 95.7 216 101.6 223.52 109.79 226.83 113.41 226.77 112.08 223.4 107 222.52 105.68 221.65 104.49 221.45 104.35 221.26 104.21 221.18 103.87 221.27 103.6 221.36 103.32 222.79 104.41 224.62 106.15 228.64 110 229.92 110.37 227.62 107.02 226.21 104.98 225.04 103.77 219.86 99.04 215.91 95.43 215.45 94.57 217.12 93.95 218.29 93.52 219.39 94.63 220.94 97.79 221.56 99.06 223.47 101.56 225.32 103.53 227.12 105.46 228.98 107.57 229.45 108.22 229.92 108.87 230.46 109.26 230.64 109.08 231.05 108.69 229.41 105.48 227.95 103.81 226.71 102.37 224.4 98.79 224.4 98.29 224.4 97.99 227.41 100.11 228 100.82 228.32 101.22 233.35 105.41 233.9 105.74 235.47 106.7 233.96 104.52 231.02 101.6 227.24 97.83 227.03 97.33 229.99 99.15 231.1 99.84 232.11 100.4 232.22 100.4 232.81 100.4 236.85 103.75 237.98 105.17 239.36 106.92 240 107.22 240 106.1 240 105.24 238.87 103.35 237.45 101.82 235.91 100.16 236.21 100.22 240.55 102.45 242.7 103.56 244.57 104.37 244.7 104.24 244.96 103.98 243.65 102.4 243.17 102.4 242.65 102.4 236.3 98.4 234.6 97.01 231.74 94.65 231.07 94 231.52 94 231.76 94 232.06 94.18 232.2 94.39 232.48 94.86 237.11 97.88 239.4 99.1 241.61 100.27 243.3 100.97 246.82 102.15 248.48 102.71 250.63 103.52 251.6 103.96 252.57 104.39 253.53 104.65 253.73 104.52 254.15 104.26 252.04 102.44 251.3 102.41 251.03 102.41 250.8 102.22 250.8 102 250.8 101.78 250.54 101.6 250.23 101.6 249.91 101.6 249.42 101.38 249.13 101.1 248.84 100.83 247.07 99.82 245.2 98.86 240.7 96.56 240.58 96.49 238 94.46 235.93 92.82 237.61 93.3 242.23 95.65 244.85 96.98 247.36 98.3 247.8 98.58 248.24 98.85 249.68 99.67 251 100.39 252.32 101.11 254.51 102.49 255.87 103.45 258.3 105.17 259.2 105.55 259.2 104.85 259.2 104.03 249.01 95.63 244.4 92.65 243.08 91.8 242 90.94 242 90.75 242 90.19 243.78 90.35 244.62 90.99 245.05 91.31 245.72 91.58 246.1 91.59 246.49 91.59 246.8 91.78 246.8 92 246.8 92.22 247.03 92.4 247.3 92.4 248.06 92.4 254.35 96.77 256.37 98.7 257.34 99.64 258.19 100.4 258.25 100.4 258.31 100.4 259.22 101.21 260.27 102.2 261.31 103.19 262.31 104 262.49 104 263.11 104 262.78 103.01 261.89 102.21 261.39 101.77 259.74 99.87 258.22 98 256.69 96.13 254.56 93.75 253.48 92.7 252.23 91.5 251.75 90.8 252.16 90.8 252.51 90.8 252.8 90.98 252.8 91.2 252.8 91.42 253 91.6 253.25 91.6 254.85 91.6 259.88 96.21 265.8 103.09 268.42 106.13 269.75 107.19 270.29 106.65 270.41 106.52 269.89 105.65 269.13 104.71 268.38 103.77 266.57 101.2 265.13 99 263.69 96.8 262.09 94.55 261.59 94 261.08 93.45 260.21 92.51 259.66 91.9L258.65 90.8 260.14 90.8C261.45 90.8 261.74 90.99 262.66 92.5 263.23 93.44 264.68 94.98 265.88 95.94 268.61 98.12 270.06 100.12 271.48 103.63 272.84 106.98 273.68 107.29 273.55 104.38 273.5 103.27 273.31 102.27 273.13 102.16 272.95 102.04 272.8 101.65 272.8 101.28 272.79 99.88 270.83 96.52 268.67 94.2L266.43 91.8 267.8 91.68C269.52 91.52 270.47 92.03 271.2 93.47 271.73 94.52 272.49 95.72 275.21 99.8 277.13 102.69 278.46 105.97 278.33 107.5 278.19 109.17 279.02 109.75 279.54 108.35 279.85 107.51 279.9 107.56 280.16 108.92 280.62 111.38 281.65 110.88 281.43 108.3 281.15 105.27 280.11 98.86 279.59 97.06 278.97 94.92 279.32 94.85 280.48 96.88 281.73 99.07 282 99.81 283.41 105.1 284.31 108.44 284.6 104.11 283.78 99.6L283.53 98.2 284.89 100.2C286.87 103.12 288.02 106.12 288.54 109.74 289.12 113.79 290.01 114.4 289.98 110.73 289.97 109.34 289.81 107.48 289.62 106.6 288.7 102.27 288.69 102.14 289.36 102.95 289.91 103.64 291.17 107.36 291.78 110.13 291.92 110.78 292.24 111.18 292.52 111.08 292.78 110.98 292.94 110.65 292.86 110.35 292.2 107.73 291.06 103.98 289.98 100.89 289.27 98.84 288.78 97.09 288.89 96.98 289.31 96.55 290.4 97.33 290.4 98.05 290.4 98.48 291.39 100.38 292.6 102.29 293.81 104.2 294.8 105.99 294.8 106.28 294.8 106.57 295.08 106.8 295.43 106.8 295.89 106.8 295.98 106.57 295.78 105.9 295.37 104.54 293.06 100.4 292.71 100.4 292.54 100.4 292.4 99.95 292.4 99.4 292.4 97.51 294.53 98.57 295.06 100.73 295.21 101.32 296 103.42 296.82 105.4 297.64 107.38 298.44 109.81 298.6 110.8 298.95 112.95 299.5 114.11 300.02 113.79 300.72 113.36 300.38 108.65 299.43 105.4 298.39 101.88 298.45 101.28 299.74 102.1 301.86 103.46 303.49 110.76 302.24 113.34 301.95 113.94 302.03 114.05 302.63 113.94 303.63 113.74 304.39 112.15 304.39 110.22 304.4 107.41 305.24 109.23 306.22 114.16 306.38 114.97 306.57 115.19 306.87 114.89 307.34 114.42 307.14 109.08 306.6 107.85 306.06 106.6 307.32 107.29 307.95 108.58 308.77 110.28 308.76 116.28 307.93 117.9 307.12 119.48 307.53 119.81 309.5 119.14 311.49 118.47 313.06 117.01 313.35 115.54 313.64 114.11 314.08 114.31 315.45 116.48 316.13 117.55 316.6 117.96 316.87 117.69 317.59 116.97 313.71 110.17 311.09 107.55 310.77 107.23 310.38 106.57 310.23 106.08 310.07 105.6 309.73 105.2 309.46 105.2 309.19 105.2 307.54 104.15 305.78 102.87 303.12 100.91 298.96 98.23 296.4 96.81 295.29 96.19 289.42 93.72 287.4 93.01 286.3 92.63 285.04 92.17 284.6 91.98 283.76 91.63 277.7 90.05 276 89.74 275.45 89.64 273.11 89.21 270.8 88.78 255.27 85.94 236.76 85.95 220.6 88.82 217.54 89.36 218.28 89.55 211.8 86.59 208.84 85.24 207.11 84.52 206.06 84.21 204.51 83.74 205.65 83.18 208.7 82.93 211.68 82.68 217.03 83.31 219.91 84.24 220.86 84.55 221.8 84.8 222.01 84.8 222.68 84.8 222.44 83.99 221.7 83.74 221.32 83.61 220.07 83.07 218.93 82.55 217.78 82.03 216.51 81.6 216.11 81.6 215.7 81.6 215.19 81.44 214.98 81.24 214.63 80.91 212.27 80.26 209.4 79.71 208.34 79.51 208.3 79.44 209 79.17 210.18 78.71 212.53 78.74 214.69 79.24 218.28 80.08 220.75 80.78 226.55 82.61 231.38 84.13 234.07 83.8 229.71 82.23 228.66 81.85 227.26 81.3 226.6 81.01 216.79 76.72 212.71 75.48 209.4 75.75 206.55 75.99 206.48 75.54 209.3 75.03 211.7 74.6 216.72 75.47 226.75 78.04 235.41 80.25 237.81 80.64 235.8 79.48 234.23 78.58 223.13 74.1 220.2 73.18 214.05 71.25 213.98 70.75 219.85 70.71 225.61 70.68 228.73 71.24 239.29 74.18 245.03 75.78 245.96 75.91 245.21 75.02 244.95 74.69 244.34 74.31 243.86 74.17 243.39 74.03 242.46 73.68 241.8 73.39 239.96 72.59 235.67 70.98 233 70.07 228.43 68.53 226.45 68 223.33 67.5L220.2 67 224.38 66.89C226.68 66.82 229.02 66.95 229.58 67.16 230.14 67.38 231.68 67.76 233 68.02 234.32 68.28 238.01 69.44 241.2 70.62 247.07 72.77 251.86 73.79 251.54 72.81 251.45 72.54 250.12 71.92 248.59 71.43 246.25 70.68 235.85 65.62 235.2 64.92 234.87 64.55 239.5 65.57 243.6 66.75 249.28 68.4 250.93 68.8 251.12 68.61 251.48 68.25 250.77 67.82 247.94 66.64 246.47 66.04 244.04 64.93 242.54 64.19L239.8 62.84 242.67 62.82C246.21 62.8 250.49 63.66 252.72 64.85 253.64 65.34 254.51 65.62 254.66 65.47 255.12 65.02 253.63 63.71 251.47 62.67 249.53 61.74 248.5 61.47 242.71 60.38 240.67 59.99 239.15 59.2 240.45 59.2 242.56 59.2 256.61 61.74 258.32 62.43 258.82 62.63 259.59 62.8 260.02 62.8 260.45 62.8 260.8 62.96 260.8 63.16 260.8 63.65 261.98 64.06 262.49 63.74 263.04 63.41 261.56 62.22 259 60.96L257 59.97 263.2 60.24C266.61 60.39 269.76 60.53 270.2 60.55 270.64 60.58 271.04 60.42 271.09 60.2 271.24 59.57 269.78 59.25 261 58 259.68 57.81 258.09 57.46 257.47 57.23 256.85 56.99 255.83 56.8 255.2 56.8 254.57 56.8 253.94 56.62 253.8 56.4 253.66 56.18 253.15 56 252.65 56 252.16 56 251.4 55.74 250.98 55.41 249.97 54.65 251.02 54.56 253.2 55.23 254.53 55.63 257.22 55.93 267.6 56.81 270.13 57.02 272.96 57.31 273.9 57.44 275.83 57.72 276.21 57.12 274.5 56.49 271.92 55.54 267.88 54.42 263.4 53.41 260.76 52.82 258.15 52.22 257.6 52.07 255.82 51.59 265.68 51.54 269.8 52.01 273.18 52.4 276.29 53.21 279.7 54.6 281.17 55.2 280.36 53.73 278.7 52.79 275.51 50.98 279.39 51.65 284.5 53.79 285.74 54.31 285.31 52.82 284 52.08 282.14 51.02 282.57 50.67 285.35 50.95 290.33 51.46 290.38 48.66 285.4 47.46 280.67 46.31 280.87 46.41 282 45.82 282.55 45.53 284.21 44.89 285.7 44.4 288.97 43.3 289.55 42.17 286.41 43 281.9 44.19 280.4 44.2 280.4 43.04 280.4 41.44 278.24 41.53 277.68 43.15 277.3 44.24 277.12 44.31 274.21 44.59 270.54 44.93 270.36 44.83 272.19 43.44 273.8 42.21 274.18 40.4 272.82 40.4 272.4 40.4 271.93 40.6 271.78 40.84 271.63 41.08 270.27 42.08 268.77 43.05 267.26 44.02 265.87 45.1 265.69 45.43 265.43 45.89 264.8 46.02 263.21 45.92L261.08 45.8 263.53 43.2C267.48 39 266.8 38.38 262.07 41.87 256.75 45.81 256.46 46 256.03 46 255.79 46 255.6 46.17 255.6 46.37 255.6 46.79 254.94 47.03 252.61 47.44 250.58 47.8 251.05 47.29 255 44.84 258.94 42.39 261.6 40.33 261.6 39.72 261.6 39.02 261.32 39.06 260.06 39.95 258.75 40.88 252.96 43.79 251.6 44.2 250.82 44.44 251.01 44.14 252.5 42.82 255.5 40.16 254.93 38.86 251.87 41.36 250.27 42.67 245.2 45.71 241.8 47.4 240.92 47.84 240.14 48.34 240.07 48.5 239.99 48.67 239.79 48.8 239.61 48.8 239.44 48.8 238.18 49.54 236.83 50.45 235.47 51.35 234.27 52 234.16 51.89 234.05 51.78 235.27 50.82 236.88 49.76 238.49 48.7 239.86 47.69 239.93 47.52 240.01 47.34 240.26 47.2 240.5 47.2 241.08 47.2 245.59 44.28 245.6 43.9 245.6 43.24 244.13 43.68 240.58 45.4 238.53 46.39 236.57 47.2 236.22 47.2 235.87 47.2 235.28 47.36 234.9 47.55 234.51 47.75 233.66 48.15 233 48.44 232.34 48.74 230.75 49.66 229.47 50.49 226.73 52.27 226.49 52.33 227.36 51 228.29 49.58 227.47 49.73 225.2 51.4 224.15 52.17 222.92 52.8 222.47 52.8 220.38 52.8 212.71 58.31 206.35 64.39 205.65 65.06 204.93 65.6 204.74 65.6 204.55 65.6 204.4 65.87 204.4 66.2 204.4 66.53 204.22 66.8 204.01 66.8 203.79 66.8 203.5 67.25 203.36 67.8 203.23 68.35 202.95 68.8 202.76 68.8 202.56 68.8 202.4 68.99 202.4 69.23 202.4 69.46 201.95 70.24 201.4 70.96 200.85 71.69 200.4 72.57 200.4 72.94 200.4 73.3 200.22 73.6 200 73.6 199.78 73.6 199.6 73.79 199.6 74.02 199.6 74.53 196.48 81.13 195.95 81.76 195.74 82 195.32 82.56 195 83 194.43 83.8 194.43 83.8 194.41 82.99 194.39 81.3 198.15 72.74 199.78 70.8 200.57 69.86 200.84 68.8 200.29 68.8 199.07 68.8 193.45 78.08 192.24 82.1 191.85 83.39 191.24 82.82 189.84 79.9 189.07 78.31 187.9 76.1 187.23 75 186.56 73.9 185.88 72.73 185.73 72.4 185.57 72.07 184.58 70.58 183.52 69.1 182.47 67.61 181.6 66.29 181.6 66.16 181.6 65.48 172.94 56.41 169.4 53.37 166.35 50.76 165.87 50.4 163.04 48.5 161.48 47.46 160.14 46.47 160.07 46.3 159.99 46.14 159.78 46 159.6 46 159.42 46 157.99 45.28 156.43 44.39 154.87 43.5 151.92 42.05 149.89 41.16 147.86 40.28 145.47 39.2 144.57 38.78 143.68 38.35 142.67 38 142.34 38 141.74 38 137.79 36.74 136.2 36.05 135.76 35.86 133.6 35.21 131.4 34.61 129.2 34.01 125.37 32.91 122.88 32.16 117.86 30.65 117.2 30.56 117.2 31.34M226.4 52.55C226.4 52.64 225.91 53.03 225.3 53.42L224.2 54.12 224.96 53.26C225.64 52.5 226.4 52.12 226.4 52.55M249.8 54.4C250.12 54.91 249.19 54.91 248.4 54.4 247.91 54.09 247.96 54.01 248.68 54.01 249.16 54 249.66 54.18 249.8 54.4M201.17 87.37C202.12 87.89 202.1 87.91 200.45 88.06 198.56 88.24 198.36 88.17 198.67 87.36 198.94 86.66 199.9 86.66 201.17 87.37M213.8 90C214.12 90.51 212.79 90.51 212 90 211.53 89.7 211.63 89.61 212.48 89.61 213.07 89.6 213.66 89.78 213.8 90M209.19 91.5C209.18 91.78 204.91 93.4 202.97 93.87 202.51 93.98 201.44 93.78 200.59 93.42 197.78 92.25 200.01 91.49 206.9 91.27 208.17 91.23 209.2 91.34 209.19 91.5M277.14 95.29C278.01 97.1 278.78 100.9 278.13 100.2 277.93 99.98 277.23 98.63 276.58 97.2 275.93 95.77 275.27 94.54 275.1 94.47 274.94 94.39 274.8 93.98 274.8 93.55 274.8 92.28 276.19 93.31 277.14 95.29M179.25 95.12C175.93 97.77 171.5 101.71 167.75 105.33 162.93 110 162.92 110.01 159.62 111.33 156.21 112.71 156.17 112.45 159.47 110.31 161.99 108.68 165.14 106.18 168.27 103.35 168.96 102.72 170.4 101.45 171.47 100.54 172.53 99.62 174.66 97.78 176.2 96.44 177.74 95.1 179.36 94.01 179.8 94.02 180.47 94.04 180.38 94.22 179.25 95.12M184.72 96.34C185.24 96.67 183.16 98.66 179.4 101.42 178.52 102.07 177.71 102.71 177.6 102.84 177.3 103.21 170.33 106.86 170.2 106.72 169.92 106.43 183.28 96.07 184 96.03 184.11 96.02 184.43 96.16 184.72 96.34M197.6 96.37C197.6 96.89 195.61 98.4 194.92 98.4 194.26 98.4 194.59 96.81 195.35 96.31 195.99 95.89 197.6 95.93 197.6 96.37M210 101.18C213.79 104.73 213.85 105.13 210.24 102.86 208.9 102.02 207 100.82 206.03 100.21 204.36 99.17 204.3 99.06 205 98.55 206.17 97.69 206.39 97.81 210 101.18M188.4 100.15C188.4 101.13 187.27 101.6 184.95 101.6 183.67 101.6 183.76 101.12 185.2 100.26 185.86 99.87 186.4 99.66 186.4 99.8 186.4 99.93 186.72 99.86 187.1 99.63 188.16 99.02 188.4 99.11 188.4 100.15M201.2 101.64C201.2 101.84 200.73 102 200.15 102 199.28 102 199.19 101.9 199.58 101.42 200.07 100.84 201.2 100.99 201.2 101.64M199.2 105.56C199.2 105.99 198.21 106.4 197.17 106.4 196.4 106.4 196.17 105.97 196.67 105.47 197.07 105.07 199.2 105.15 199.2 105.56M88 108.37C87.67 108.55 86.77 108.81 86 108.94 84.61 109.17 84.62 109.16 86.2 108.62 88.03 107.98 88.88 107.86 88 108.37M209.17 108.85C211.89 109.71 212.4 109.99 212.4 110.59 212.4 111.27 211.17 111.4 210.1 110.83 209.71 110.63 208.1 110.07 206.5 109.58 204.91 109.1 203.6 108.63 203.6 108.55 203.6 108.21 207.86 108.44 209.17 108.85M85.6 115.94C85.6 116.12 85.24 116.6 84.8 117 83.92 117.8 83.78 117.57 84.41 116.37 84.83 115.59 85.6 115.31 85.6 115.94M146.79 129.62C146.34 130.47 143.98 132.11 143.66 131.8 143.45 131.59 146.46 128.82 146.91 128.81 147.09 128.8 147.03 129.17 146.79 129.62M245.31 138.84C246.83 140.72 247.39 141.98 246.08 140.57 245.68 140.15 244.79 139.32 244.09 138.74 242.95 137.77 241.2 135.2 241.2 134.49 241.21 134.14 243.29 136.34 245.31 138.84M134.35 155.6C133.65 156.48 132.88 157.2 132.65 157.2 132.42 157.2 132.94 156.48 133.8 155.6 134.66 154.72 135.42 154 135.5 154 135.58 154 135.06 154.72 134.35 155.6M140.95 159.7C140.53 161.14 140 160.33 140 158.23 140 154.98 140.52 154.13 140.87 156.8 141.03 158.01 141.07 159.32 140.95 159.7M139.37 171.16C139.12 171.41 138.41 170.39 138.42 169.8 138.42 169.58 138.69 169.75 139.01 170.17 139.33 170.6 139.49 171.04 139.37 171.16M252.9 356.75C249.92 357.78 247.23 360.72 250.1 359.81 250.6 359.65 253.12 359.41 255.72 359.26 260.63 358.99 261.86 358.49 260.64 357.27 259.34 355.97 255.85 355.73 252.9 356.75M224.4 357.86C217.67 358.51 208.43 360.47 199 363.24 184.9 367.39 176.86 369.62 173.1 370.42 168.47 371.41 167.29 372.25 171.1 371.86 173.07 371.65 172.43 371.95 166.56 373.94 157.85 376.89 153.6 379.42 153.6 381.66 153.6 383.94 164.23 383.27 176.4 380.23 204.32 373.25 228.08 370.6 227.52 374.53 227.21 376.73 213.39 382.34 197.43 386.75 195.14 387.38 193.94 388.4 195.49 388.4 195.9 388.4 198.64 387.85 201.56 387.18 221.55 382.59 233.16 376.7 230.03 372.73 226.82 368.64 207.65 370.59 180 377.81 169.9 380.44 164.61 381.54 161.24 381.68 157.73 381.82 157.03 381.17 159.89 380.4 160.94 380.11 164.43 378.93 167.65 377.76 183.5 372.03 202.54 367.48 222.6 364.64 231.49 363.38 234.94 362.61 238.9 361 239.9 360.59 239.76 359.33 238.63 358.58 237.64 357.93 228.47 357.46 224.4 357.86M181.2 358.57C181.2 358.66 179.9 359.02 178.3 359.37 176.71 359.73 173.72 360.48 171.67 361.05 169.63 361.62 167.86 362 167.76 361.89 167.56 361.69 170.42 360.86 176.4 359.39 180.31 358.43 181.2 358.28 181.2 358.57M223 361.29C220.68 361.61 215.37 362.5 200.8 365.01 199.82 365.18 199.58 365.14 200 364.87 201.84 363.68 218.21 360.88 223.2 360.9L225.8 360.91 223 361.29M172.29 392.99C168.35 394.27 166.65 395.2 168.24 395.2 169.48 395.2 176.8 392.82 176.8 392.41 176.8 391.66 176.09 391.75 172.29 392.99" stroke="none" fill="#262626" fill-rule="evenodd"/><path id="path1" d="M232.4 2.2C215.75 3.82 199.6 8.92 185.8 16.9 181.27 19.52 175.2 23.65 175.2 24.11 175.2 24.4 180.6 24.45 193.1 24.27 238.7 23.6 264.08 21.3 290.2 15.45 295.99 14.15 295.9 14.34 291.6 12.32 284.76 9.11 273.79 5.41 267.6 4.22 254.56 1.72 243.7 1.1 232.4 2.2M295 17.66C289.61 19.08 286.1 19.85 281.4 20.63 279.42 20.96 276.36 21.47 274.6 21.78 271.47 22.32 269.29 22.62 260 23.77 241.84 26.02 221.94 26.9 192.93 26.73L171.66 26.6 170.33 27.59C167.46 29.71 158.19 38.5 157.52 39.74 157.08 40.56 157.86 40.55 167.8 39.59 174.33 38.95 184.25 38.05 189.6 37.61 192.35 37.39 197.75 36.94 201.6 36.62 209.35 35.99 218.88 35.33 225 35.01 227.2 34.89 231.88 34.63 235.4 34.42 238.92 34.21 252.6 33.84 265.8 33.61 286.61 33.24 303.08 32.64 316.67 31.77 320.87 31.5 320.93 31.38 317.95 29 316.84 28.12 315.73 27.22 315.47 26.99 315.21 26.77 314.19 25.96 313.2 25.2 312.21 24.43 311.34 23.67 311.27 23.5 311.19 23.34 310.97 23.2 310.77 23.2 310.57 23.2 309.55 22.59 308.5 21.84 306.12 20.13 299.95 16.38 299.63 16.45 299.51 16.48 297.42 17.02 295 17.66M305.9 34.61C301.12 34.88 284.29 35.31 268.5 35.56 242.03 35.99 227.28 36.49 208.6 37.61 198.92 38.19 178.62 39.7 170.8 40.41 168.49 40.63 164.27 40.99 161.41 41.22 156.68 41.61 155.56 41.79 156.03 42.11 156.13 42.17 160.25 42.08 165.2 41.91 170.15 41.74 186.89 41.71 202.4 41.84 221.25 42 231.66 41.95 233.8 41.66 235.56 41.43 239.7 40.96 243 40.61 246.3 40.26 250.62 39.79 252.6 39.57 254.58 39.35 257.46 39.09 259 38.99 260.54 38.89 263.24 38.64 265 38.43 273.6 37.4 293.77 36.13 310.19 35.59 317.67 35.35 323.85 35.08 323.93 35 325.05 33.89 320.4 33.79 305.9 34.61M311.2 38.44C307.79 38.62 301.31 38.95 296.8 39.18 275.11 40.29 273.6 40.44 273.6 41.47 273.6 42.06 274.15 42.1 278.9 41.85 281.82 41.7 287.89 41.41 292.4 41.19 296.91 40.98 303.21 40.63 306.4 40.4 309.59 40.18 314.9 39.81 318.2 39.58 326.01 39.03 327.6 38.83 327.6 38.38 327.6 37.94 320.31 37.97 311.2 38.44M267.4 41.1C264.37 41.33 264.18 42 267.14 42 268.99 42 269.57 42.13 269.35 42.48 269.19 42.74 269.63 42.55 270.33 42.05 272.24 40.69 272.34 40.72 267.4 41.1M327 41.61C323.01 42.11 301.88 43.49 292.6 43.84 287.55 44.04 286.17 44.23 283.9 45.07 281.3 46.03 280.69 46.8 282.52 46.8 284.77 46.81 288.6 48.26 288.73 49.16 288.97 50.8 288.15 51.24 285.35 50.95 283.58 50.77 282.8 50.83 282.8 51.14 282.8 51.88 283.76 51.93 306.6 52.38 334.37 52.93 338.8 52.93 338.8 52.36 338.8 51.3 330.54 41.14 329.76 41.25 329.56 41.28 328.32 41.44 327 41.61M170.04 44.42C159.75 44.74 156.99 45.1 159.03 45.86 159.46 46.01 159.89 46.25 160 46.38 161.52 48.19 160.89 48.2 190.03 46.02 195.69 45.59 202.09 44.85 202.36 44.58 202.45 44.48 198.86 44.4 194.37 44.4 189.88 44.4 185.03 44.32 183.6 44.24 182.17 44.15 176.07 44.23 170.04 44.42M261.65 45.26C261.23 45.95 261.36 46 263.35 46 264.94 46 265.58 45.83 265.75 45.38 265.88 45.04 265.86 44.84 265.69 44.94 265.53 45.05 264.65 44.99 263.75 44.83 262.39 44.58 262.04 44.65 261.65 45.26M242.76 46.03C241.79 46.67 240.79 47.2 240.53 47.2 240.28 47.2 240.01 47.34 239.93 47.52 239.86 47.69 238.49 48.7 236.88 49.76 235.27 50.82 234.05 51.78 234.16 51.89 234.27 52 235.47 51.35 236.83 50.45 238.18 49.54 239.44 48.8 239.61 48.8 239.79 48.8 239.99 48.67 240.07 48.5 240.14 48.34 240.92 47.84 241.8 47.41 244.89 45.88 245.68 45.32 245.08 45.09 244.77 44.97 243.72 45.39 242.76 46.03M253.6 45.71C251.06 47.29 250.79 47.76 252.61 47.44 254.88 47.04 255.6 46.79 255.6 46.42 255.6 46.24 256 45.99 256.48 45.86 257.51 45.6 257.39 45.41 256 45.07 255.33 44.92 254.53 45.13 253.6 45.71M222.4 45.62C221.19 45.8 218.04 46.14 215.4 46.39 212.76 46.64 208.17 47.09 205.2 47.4 195.4 48.41 178.31 49.8 170.28 50.24 165.97 50.48 165.97 50.48 166.88 51.24 169.68 53.57 171.21 54.94 173.09 56.76 174.89 58.52 175.38 58.79 176.69 58.75 178.99 58.68 180.69 58.24 180.1 57.87 179.16 57.28 179.6 56.52 181.63 55.26 184.58 53.42 185.8 53.82 183.01 55.72 180.64 57.33 182.39 58.05 186.68 57.24 187.74 57.03 190.22 56.66 192.2 56.4 194.18 56.14 197.6 55.69 199.8 55.39 209.98 54.02 219.46 53.06 220.16 53.33 220.5 53.46 220.88 53.39 221.01 53.18 221.14 52.97 221.71 52.8 222.27 52.8 222.83 52.8 224.15 52.17 225.2 51.4 227.47 49.73 228.29 49.58 227.36 51 226.49 52.33 226.73 52.27 229.47 50.49 230.75 49.66 232.34 48.74 233 48.44 233.66 48.15 234.51 47.75 234.9 47.55 235.28 47.36 235.84 47.2 236.14 47.2 236.45 47.2 237.67 46.76 238.85 46.22L241 45.25 232.8 45.27C228.29 45.29 223.61 45.45 222.4 45.62M274.6 54.8C269.81 55 269.8 55 271.6 55.55 275.96 56.87 277.23 57.92 273.9 57.44 272.96 57.31 270.13 57.02 267.6 56.81 257.22 55.93 254.53 55.63 253.2 55.23 251.02 54.56 249.97 54.65 250.98 55.41 251.4 55.74 252.16 56 252.65 56 253.15 56 253.65 56.16 253.77 56.36 253.9 56.56 254.67 56.8 255.5 56.91 256.32 57.01 258.08 57.32 259.4 57.58 260.72 57.85 262.7 58.22 263.8 58.4 264.9 58.59 266.79 58.91 268 59.13 269.3 59.35 270.48 59.37 270.87 59.16 271.24 58.96 274.3 58.8 277.67 58.8 281.04 58.81 287.31 58.62 291.6 58.4 308.67 57.5 326.96 56.8 333.6 56.79 337.45 56.79 340.85 56.63 341.15 56.44 341.94 55.94 335.03 55.7 305.4 55.18 291.32 54.93 279.71 54.7 279.6 54.66 279.49 54.63 277.24 54.69 274.6 54.8M148.85 55.42C148.11 55.74 147.17 56 146.75 56 146.34 56 146 56.18 146 56.4 146 56.62 145.55 56.8 145 56.8 144.37 56.8 144 57.03 144 57.41 144 57.75 143.69 58.52 143.3 59.11L142.6 60.19 144 59.29C144.77 58.79 146.89 57.66 148.7 56.78 150.51 55.9 152 55.09 152 54.99 152 54.6 150.15 54.85 148.85 55.42M210.37 56.97C210.28 57.06 208.31 57.33 206 57.58 203.69 57.83 200.72 58.19 199.4 58.4 198.08 58.6 195.97 58.88 194.7 59.01 191.38 59.37 191.87 59.81 196.18 60.34 206.56 61.61 210.28 61.06 214 57.7L214.99 56.8 212.76 56.8C211.54 56.8 210.46 56.88 210.37 56.97M151.2 58.46C148.73 59.14 140.38 63.25 140.64 63.66 140.73 63.82 140.63 64.06 140.41 64.2 139.27 64.9 140.14 65.28 142.3 65.01 144.31 64.76 144.82 64.51 146.37 62.96 147.35 61.99 148.27 61.2 148.42 61.2 148.57 61.2 149.3 60.66 150.05 60.01 150.79 59.35 151.61 58.81 151.88 58.81 152.14 58.8 152.46 58.62 152.6 58.4 152.74 58.18 152.79 58.02 152.72 58.04 152.66 58.06 151.97 58.25 151.2 58.46M322.8 59.24C303.11 60.02 290.83 60.44 276.83 60.82 261.21 61.25 259.92 61.4 261.74 62.59 262.32 62.98 262.69 63.45 262.57 63.64 262.26 64.15 261.74 64.08 261.12 63.46 260.83 63.17 260.14 62.82 259.59 62.69 252.59 60.99 251.22 60.71 252.2 61.17 252.84 61.47 252.64 61.55 251.2 61.57L249.4 61.6 251.4 62.62C253.62 63.74 255.11 65.03 254.67 65.46 254.52 65.62 253.64 65.34 252.72 64.85 250.49 63.66 246.21 62.8 242.67 62.82L239.8 62.84 242.46 64.15C244.86 65.34 246.9 66.26 250.28 67.67 251.69 68.26 250.66 68.24 294 68.56 313.91 68.7 333.44 69.01 337.4 69.25 341.36 69.48 345.53 69.61 346.66 69.54L348.71 69.4 347.21 66.4C346.39 64.75 345.16 62.41 344.49 61.2L343.26 59 337.13 58.96C333.76 58.93 327.31 59.06 322.8 59.24M240.2 59.6C240.34 59.82 241.02 60 241.72 59.99 242.7 59.99 242.86 59.9 242.4 59.6 241.61 59.09 239.88 59.09 240.2 59.6M155 59.89C154.56 59.99 154.03 60.24 153.82 60.44 153.61 60.64 153.12 60.8 152.72 60.8 152.32 60.8 152 60.96 152 61.16 152 61.35 151.55 61.63 151 61.76 150.45 61.9 150 62.19 150 62.41 150 62.62 149.75 62.8 149.45 62.8 149.15 62.8 148.69 63.05 148.44 63.35 148.07 63.8 148.27 63.84 149.7 63.57 152 63.12 152.09 63.13 151.75 63.7 151.58 63.98 152.25 63.55 153.22 62.76 154.2 61.97 155.41 61.11 155.9 60.85 157.54 59.98 157 59.41 155 59.89M162.6 59.98C161.06 60.37 158.4 61.5 158.4 61.77 158.4 61.99 159.71 61.81 162.8 61.18 163.79 60.97 165.28 60.77 166.1 60.72 166.93 60.67 167.6 60.51 167.6 60.36 167.6 59.61 164.9 59.41 162.6 59.98M182.6 60.84C181.28 61.02 179.67 61.32 179.01 61.51L177.83 61.85 179.71 63.87C180.75 64.98 181.6 66 181.6 66.14 181.6 66.28 182.47 67.61 183.52 69.1 184.58 70.58 185.58 72.07 185.74 72.4 186.83 74.64 186.72 74.6 191.4 74.6L195.8 74.6 196.8 72.99C198.44 70.35 199.72 68.8 200.26 68.8 200.83 68.8 200.58 69.83 199.78 70.8 199.18 71.52 197.39 74.72 197.81 74.31 197.97 74.16 198.44 74.21 198.85 74.43 199.43 74.74 199.6 74.69 199.6 74.21 199.6 73.88 199.78 73.6 200 73.6 200.22 73.6 200.4 73.3 200.4 72.94 200.4 72.57 200.85 71.69 201.4 70.96 201.95 70.24 202.4 69.46 202.4 69.23 202.4 68.99 202.56 68.8 202.76 68.8 202.95 68.8 203.23 68.35 203.36 67.8 203.5 67.25 203.79 66.8 204.01 66.8 204.22 66.8 204.4 66.53 204.4 66.2 204.4 65.87 204.55 65.6 204.74 65.6 204.92 65.6 205.8 64.91 206.69 64.06L208.31 62.52 202.04 62.28C198.42 62.13 194 61.69 191.59 61.22 187.12 60.35 186.34 60.32 182.6 60.84M167.6 64.82C164.49 65.17 161.15 65.95 160.62 66.44 160.41 66.64 160.01 66.8 159.74 66.8 159.03 66.8 152.69 70.49 151.55 71.57 150.11 72.93 149.2 73.35 149.2 72.66 149.2 72.01 153.01 68.22 154.81 67.08 156.87 65.77 156.07 65.18 153.32 65.97 152.52 66.19 152 66.19 151.92 65.95 151.85 65.74 150.63 66.65 149.22 67.98 146.88 70.18 146 70.78 146 70.19 146 69.84 147.35 67.83 147.79 67.51 148.48 67.01 147.23 67.15 142.53 68.07L138.06 68.95 136.97 71.57C136.37 73.02 135.72 74.37 135.54 74.58 134.23 76.05 135.12 76.52 138.7 76.25 140.63 76.1 145.89 75.8 150.4 75.59 157.77 75.24 160.8 74.79 160.8 74.05 160.8 73.91 161.39 73.54 162.1 73.23 162.82 72.92 164.04 72.27 164.81 71.78 165.59 71.3 166.8 70.78 167.51 70.62 168.22 70.46 168.8 70.17 168.8 69.97 168.8 69.44 168.2 69.51 164.6 70.43 159.28 71.8 157 72.51 155.51 73.25 154.53 73.74 152.71 73.69 152.88 73.17 153.11 72.46 158.89 69.64 163 68.22 164.1 67.84 165.31 67.36 165.7 67.17 166.08 66.96 166.83 66.8 167.37 66.8 167.91 66.8 168.45 66.64 168.57 66.45 168.69 66.26 169.51 65.99 170.39 65.85 171.76 65.63 172.74 64.8 171.63 64.8 171.43 64.8 171.03 64.74 170.73 64.67 170.44 64.59 169.03 64.66 167.6 64.82M235.22 64.94C236.86 66.71 242.4 68.59 245.6 68.46L249 68.33 247 67.75C245.9 67.43 244.37 66.99 243.6 66.76 239.56 65.58 234.86 64.55 235.22 64.94M220.4 66.93C220.4 67.03 221.88 67.33 223.69 67.59 225.5 67.85 227.32 68.25 227.73 68.47 228.19 68.72 229.59 68.76 231.34 68.57L234.2 68.27 231.8 67.68C229.58 67.13 220.4 66.53 220.4 66.93M217.8 70.7C214.06 70.98 214.5 71.35 221.03 73.47 222.49 73.94 223.78 74.14 224.23 73.96 224.66 73.79 226.98 73.63 229.4 73.6 233.2 73.55 237.4 72.92 234.55 72.83 234.08 72.81 232.91 72.52 231.95 72.18 230.71 71.74 228.78 71.56 225.32 71.58 220.96 71.6 218.78 71.18 220.7 70.68 221.54 70.46 220.89 70.46 217.8 70.7M308.6 71.6C311.01 71.92 314.44 72.3 323.4 73.28 328.53 73.84 349.72 74.01 350.23 73.5 350.89 72.85 349.71 72.66 341.91 72.18 332.65 71.61 304.96 71.13 308.6 71.6M169.48 72.51C164.42 73.63 164.25 73.68 163.41 74.26 162.29 75.03 168.25 75.02 170.09 74.25 171.97 73.46 174.15 72.8 174.91 72.8 175.26 72.8 175.65 72.64 175.77 72.44 176.2 71.75 172.72 71.78 169.48 72.51M239.2 72.27C239.97 72.62 240.93 73.07 241.34 73.28 241.85 73.54 242 73.53 241.82 73.23 241.64 72.94 242.39 72.79 244.08 72.77 246.54 72.74 246.57 72.72 245.4 72.19 244.7 71.86 242.88 71.64 241 71.64L237.8 71.65 239.2 72.27M251.48 72.44C251.8 72.76 253.38 72.78 257.06 72.5L262.2 72.12 256.62 72.06C252.55 72.02 251.16 72.12 251.48 72.44M242.4 76.02C241.41 76.19 239.32 76.35 237.76 76.37 236.2 76.39 233.79 76.52 232.42 76.66L229.92 76.92 232.06 77.8C235.5 79.22 235.72 79.29 237.4 79.45 240.07 79.72 242.74 80.77 243.02 81.67 243.37 82.75 243.2 82.88 238.8 84.81 236.71 85.72 234.96 86.51 234.9 86.57 234.85 86.62 239.17 86.67 244.5 86.68 249.84 86.69 255.63 86.9 257.37 87.15 259.26 87.43 260.64 87.46 260.77 87.25 260.98 86.91 263.74 86.47 271.2 85.59 272.85 85.39 276.36 84.95 279 84.6 281.64 84.26 285.6 83.8 287.8 83.59 290 83.39 294.68 82.94 298.2 82.59 304.56 81.97 307.23 81.78 325.15 80.63 330.29 80.3 334.6 79.93 334.72 79.82 334.84 79.7 326.54 79.6 316.28 79.6 295.85 79.6 296.49 79.68 296.88 77.3 296.98 76.7 296.53 76.56 293.8 76.3 289.23 75.88 244.56 75.63 242.4 76.02M195.09 80.37C194.2 82.88 194.15 84.18 195 83 195.32 82.56 195.71 82.02 195.89 81.79 197.04 80.27 197.63 78.82 196.98 79.06 196.62 79.2 196.2 79.12 196.05 78.88 195.9 78.63 195.47 79.31 195.09 80.37M209 79.17C208.3 79.44 208.34 79.51 209.4 79.71 212.27 80.26 214.63 80.91 214.98 81.24 215.19 81.44 215.7 81.6 216.11 81.6 216.51 81.6 217.78 82.03 218.93 82.55 220.07 83.07 221.32 83.61 221.7 83.74 222.44 83.99 222.68 84.8 222.01 84.8 221.8 84.8 220.86 84.55 219.91 84.24 217.03 83.31 211.68 82.68 208.7 82.93 205.65 83.18 204.51 83.74 206.06 84.21 207.11 84.52 208.84 85.24 211.8 86.59 217.81 89.33 217.65 89.29 219.94 89 221.29 88.83 221.93 88.6 221.61 88.41 221.26 88.19 221.54 87.99 222.45 87.81 224.51 87.38 236.65 83.08 237.12 82.62 237.49 82.25 236.9 81.91 235.32 81.59 227.05 79.93 225.03 79.58 224.46 79.72 223.9 79.85 223.93 79.92 224.6 80.16 225.04 80.32 225.94 80.69 226.6 80.99 227.26 81.29 228.66 81.85 229.71 82.23 233.97 83.77 231.41 84.14 226.75 82.66 215.48 79.08 211.33 78.26 209 79.17M191.5 79.52C190.68 79.59 190 79.73 190 79.84 190 80.59 191.28 82.84 191.64 82.72 192 82.6 193.37 79.47 193.08 79.42 193.04 79.41 192.33 79.46 191.5 79.52M133.39 80.9C131.64 85.76 131.57 85.62 135.49 84.97 137.2 84.68 139.77 84.26 141.2 84.02 142.63 83.79 146.05 83.22 148.8 82.77 151.55 82.31 155.14 81.77 156.77 81.55 163.22 80.7 160.88 80.42 147.29 80.41 136.67 80.4 133.53 80.51 133.39 80.9M176.33 81.11C176.7 81.37 176.08 81.56 174.33 81.73 171.53 82 163.24 83.43 162.98 83.69 162.89 83.78 163.84 84.27 165.11 84.77 166.37 85.27 168.03 85.97 168.8 86.31 169.59 86.67 172.11 87.07 174.6 87.25 177.02 87.41 180.08 87.66 181.4 87.79 183.57 88.01 183.7 87.98 182.8 87.49 180.98 86.51 177.67 85.6 175.95 85.6 173.01 85.6 167.6 84.67 167.6 84.17 167.6 83.68 168.64 83.5 176.8 82.64 179.55 82.34 181.69 82.08 181.56 82.05 181.42 82.02 180.43 81.83 179.36 81.63 178.28 81.42 177.04 81.14 176.6 80.99 176.04 80.8 175.96 80.84 176.33 81.11M316.8 83.47C309.08 83.71 286.89 85.59 274.6 87.05 266.31 88.04 266.32 88.12 275 89.58 277.3 89.96 283.42 91.49 284.6 91.97 288.25 93.47 290.83 94.27 291.02 93.96 291.15 93.76 292.72 93.58 294.52 93.56 297.05 93.53 297.5 93.45 296.46 93.2 294.6 92.76 294.21 92.24 294.35 90.37 294.41 89.64 299.04 88.43 311.2 85.98 312.19 85.78 314.62 85.34 316.6 85 322.05 84.07 324.52 83.63 325.4 83.45 326.24 83.29 322.55 83.29 316.8 83.47M331.2 86.05C322.86 87.38 320.44 87.8 316 88.68 313.25 89.22 310.94 89.73 310.86 89.81 310.29 90.38 313.46 90.41 316.16 89.86 321.35 88.8 327.15 87.66 330.6 87.01 332.36 86.68 334.61 86.25 335.6 86.05L337.4 85.69 335.4 85.69C334.3 85.69 332.41 85.85 331.2 86.05M142 87.2C141.58 87.47 142.25 87.59 144.2 87.59 146.15 87.59 146.82 87.47 146.4 87.2 146.07 86.99 145.08 86.81 144.2 86.81 143.32 86.81 142.33 86.99 142 87.2M198.67 87.36C198.36 88.17 198.56 88.24 200.45 88.06 202.1 87.91 202.12 87.89 201.17 87.37 199.9 86.66 198.94 86.66 198.67 87.36M351.6 87.27C350.39 87.47 348.14 87.82 346.6 88.05 344.05 88.43 342.19 88.74 334.4 90.09 330.18 90.82 330.31 91.18 334.8 91.19 343.56 91.21 354.8 89.05 354.8 87.35 354.8 86.75 354.77 86.75 351.6 87.27M212 90C212.79 90.51 214.12 90.51 213.8 90 213.66 89.78 213.07 89.6 212.48 89.61 211.63 89.61 211.53 89.7 212 90M242 90.75C242 90.94 243.09 91.8 244.43 92.65 245.76 93.5 247.49 94.73 248.27 95.38 249.54 96.44 252.4 96.93 253.12 96.21 253.35 95.98 247.88 92.4 247.3 92.4 247.03 92.4 246.8 92.22 246.8 92 246.8 91.78 246.49 91.59 246.1 91.59 245.72 91.58 245.05 91.31 244.62 90.99 243.78 90.35 242 90.19 242 90.75M254.28 93.49C256.76 96.01 258.2 96.69 259.14 95.79 259.37 95.57 253.84 91.61 253.3 91.61 253.03 91.6 252.8 91.42 252.8 91.2 252.8 90.98 252.54 90.8 252.21 90.8 251.89 90.8 252.82 92.01 254.28 93.49M259.67 91.9C260.23 92.51 261.19 93.59 261.81 94.3 262.48 95.08 263.31 95.6 263.87 95.6 264.9 95.6 265.11 95.02 264.26 94.52 263.96 94.34 263.24 93.44 262.65 92.5 261.72 91 261.42 90.8 260.12 90.8L258.65 90.8 259.67 91.9M202.63 91.5C200.07 91.7 198.73 92.52 199.93 93.16 200.48 93.46 200.78 93.46 200.87 93.18 200.95 92.95 202.09 92.6 203.41 92.39 209.36 91.46 208.97 91.01 202.63 91.5M267.04 92.46C269.33 95.03 269.91 95.45 270.76 95.14 272.79 94.39 270.59 91.6 267.96 91.6L266.28 91.6 267.04 92.46M160.8 93C160.1 93.84 164.31 93.86 165.42 93.01 166.13 92.48 165.99 92.42 163.75 92.41 162.05 92.4 161.15 92.58 160.8 93M173.6 93.4C172.8 93.86 172.75 93.98 173.32 93.99 173.72 93.99 173.94 94.18 173.8 94.4 173.67 94.61 173.8 94.7 174.09 94.59 174.38 94.48 174.84 94.03 175.11 93.59 175.72 92.61 175.11 92.54 173.6 93.4M274.8 93.59C274.8 94.13 275.06 94.4 275.6 94.4 276.04 94.4 276.4 94.23 276.4 94.01 276.4 93.8 276.04 93.44 275.6 93.2 274.92 92.84 274.8 92.9 274.8 93.59M237.2 93.55C237.2 93.77 237.79 94.36 238.5 94.86 239.22 95.36 239.86 95.91 239.93 96.09 240.01 96.26 240.26 96.4 240.5 96.4 240.74 96.4 241.23 96.66 241.58 96.99 242.21 97.55 244 97.43 244 96.82 244 96.66 242.61 95.84 240.9 94.99 239.2 94.15 237.67 93.39 237.5 93.3 237.34 93.22 237.2 93.33 237.2 93.55M216.9 94.04C215.11 94.71 217.84 98.4 220.12 98.4 221.46 98.4 221.46 98.43 219.99 96.05 218.63 93.84 218.2 93.56 216.9 94.04M232.24 95.02C235.23 97.65 236.27 98.36 236.27 97.76 236.27 97.43 235.5 96.71 234.57 96.16 233.63 95.61 232.65 94.9 232.39 94.58 232.12 94.26 231.72 94 231.49 94 231.26 94 231.6 94.46 232.24 95.02M150.91 96.5C150.21 97.25 150.16 97.48 150.61 97.89 151.14 98.38 151.54 97.8 151.84 96.1 151.96 95.42 151.87 95.46 150.91 96.5M169.28 96.24C168.86 96.71 168.9 96.8 169.55 96.8 169.98 96.8 170.41 97.02 170.49 97.28 170.59 97.58 170.75 97.51 170.91 97.09 171.27 96.15 169.98 95.49 169.28 96.24M157.13 96.28C156.54 96.37 155.84 96.71 155.58 97.02 155.03 97.69 158.14 97.88 159.15 97.24 159.77 96.85 159.41 95.97 158.68 96.06 158.41 96.09 157.72 96.19 157.13 96.28M195.9 96.29C195.3 96.38 194.8 96.61 194.8 96.79 194.8 96.98 194.69 97.42 194.56 97.77 194.21 98.68 195.28 98.57 196.55 97.57 197.54 96.79 197.97 95.93 197.3 96.06 197.14 96.09 196.51 96.2 195.9 96.29M349.6 97.87C346.63 98.19 342.13 98.78 339.6 99.18L335 99.92 337.8 99.96C339.34 99.98 342.13 99.72 344 99.37 345.87 99.02 349.52 98.5 352.12 98.22 354.71 97.94 356.94 97.59 357.08 97.45 357.42 97.11 355.96 97.19 349.6 97.87M205.04 98.52C204.41 98.99 204.49 99.03 205.76 98.88 206.55 98.79 207.09 98.55 206.97 98.36 206.66 97.85 205.87 97.92 205.04 98.52M289.67 98.35C289.36 98.55 289.32 99.01 289.56 99.82 290.23 102.06 290.48 102.4 291.44 102.4 292.44 102.4 292.65 102.03 292.04 101.38 291.84 101.17 291.33 100.34 290.91 99.53 290.43 98.63 289.96 98.18 289.67 98.35M277.73 99.03C277.6 99.37 277.7 99.86 277.95 100.11 278.28 100.44 278.4 100.28 278.4 99.48 278.4 98.28 278.1 98.07 277.73 99.03M280.27 100.1C280.56 102.58 280.68 102.8 281.75 102.8 282.77 102.8 282.77 102.56 281.78 99.3 281.25 97.55 280.05 98.18 280.27 100.1M283.6 99.07C283.6 100.89 284.45 102.4 285.46 102.4L286.44 102.4 285.15 100.5C284.45 99.46 283.81 98.53 283.74 98.43 283.66 98.34 283.6 98.63 283.6 99.07M292.4 99.4C292.4 99.95 292.55 100.4 292.74 100.4 292.93 100.4 293.25 100.79 293.46 101.27 294.13 102.75 295.58 102.54 295.15 101.03 294.96 100.36 294.8 99.77 294.8 99.73 294.8 99.69 294.52 99.37 294.17 99.03 293.22 98.08 292.4 98.25 292.4 99.4M299.82 98.74C303.08 101.62 305.86 102.3 307.45 100.59 307.95 100.05 308.77 99.59 309.28 99.57 314.91 99.38 312.62 98.48 306.42 98.44 302.58 98.42 299.61 98.55 299.82 98.74M267.61 99.24C266.85 99.4 266.08 99.45 265.91 99.34 265.35 99 265.58 99.57 266.75 101.45 267.83 103.19 268.01 103.31 269.71 103.35L271.51 103.4 270.57 101.6C269.18 98.94 269.15 98.92 267.61 99.24M272.49 100.2C272.7 100.86 272.97 101.67 273.1 102 273.22 102.33 273.3 102.74 273.26 102.91 273.22 103.09 274.06 103.18 275.13 103.11L277.07 103 276.3 101.6C274.73 98.75 271.68 97.63 272.49 100.2M261.08 99.6L259.56 99.8 261.28 101.6C262.79 103.18 263.16 103.38 264.31 103.2L265.62 103 264.11 101.2C262.71 99.53 262.49 99.42 261.08 99.6M249.79 99.99C249.93 100.22 249.77 100.4 249.42 100.4 248.43 100.4 248.7 101.16 249.8 101.44 250.35 101.57 250.8 101.85 250.8 102.04 250.8 102.24 251.01 102.4 251.27 102.4 251.53 102.4 252.02 102.64 252.37 102.93 252.75 103.25 253.47 103.37 254.2 103.22L255.4 102.99 254 102.14C251.27 100.47 249.54 99.59 249.79 99.99M255.6 99.9L254.21 100.07 256.11 101.74C257.79 103.22 258.21 103.4 259.6 103.27L261.18 103.12 259.79 101.76C259.02 101.01 258.21 100.4 257.99 100.4 257.78 100.4 257.6 100.22 257.6 100 257.6 99.78 257.46 99.63 257.3 99.66 257.14 99.7 256.37 99.8 255.6 99.9M231.81 101.04C230.81 101.77 231.27 102.15 233.21 102.18 234.09 102.19 234.8 102.19 234.8 102.18 234.8 101.5 232.42 100.6 231.81 101.04M237.04 101.4C237.51 102.12 238.05 102.4 238.95 102.4L240.2 102.39 238.46 101.4C236.3 100.16 236.23 100.16 237.04 101.4M240.89 100.86C240.97 101.12 241.62 101.64 242.32 102.01 243.02 102.39 243.9 102.94 244.27 103.25 244.67 103.57 244.83 103.6 244.67 103.32 244.45 102.96 245.06 102.89 247.09 103.04L249.8 103.23 246.5 102.09C244.69 101.46 243.09 100.82 242.94 100.67 242.47 100.21 240.72 100.37 240.89 100.86M164.04 101.35C163.68 101.78 163.73 101.96 164.23 102.16 165.03 102.46 165.6 102.14 165.6 101.38 165.6 100.64 164.64 100.63 164.04 101.35M175.16 102.44C173.09 104.21 173.79 105.17 176.15 103.78 178.52 102.38 178.88 101.86 177.83 101.36 177.05 100.99 176.68 101.14 175.16 102.44M168.62 102.99C167.12 104.34 166.79 104.82 167.26 105 167.81 105.21 171.6 102.08 171.6 101.42 171.6 100.77 170.37 101.42 168.62 102.99M209.26 101.51C208.45 101.65 208.62 101.85 210.59 103.08 213.3 104.77 213.72 104.65 211.69 102.75 210.65 101.78 209.92 101.4 209.26 101.51M216.1 103.27C217.02 104.86 217.78 105.77 219.9 107.81 222.22 110.04 222.61 111.04 221 110.64 219.04 110.14 220.05 110.74 223.01 111.82 226.45 113.07 232.75 113.09 241.2 111.86 243.51 111.53 247.2 111.06 249.4 110.82 251.6 110.58 255.65 110.11 258.4 109.77 261.15 109.44 264.84 109 266.6 108.8 268.36 108.59 271.49 108.21 273.56 107.95 275.63 107.68 277.56 107.47 277.86 107.47 278.16 107.47 278.4 107.06 278.4 106.57 278.4 105.75 278.18 105.66 276 105.54 274.27 105.44 273.6 105.54 273.6 105.9 273.6 106.18 273.33 106.4 273 106.4 272.67 106.4 272.4 106.09 272.39 105.7 272.39 105.31 272.26 105.17 272.09 105.4 271.93 105.62 271.53 105.86 271.2 105.93 270.87 106 270.54 106.23 270.47 106.43 270.23 107.08 269.26 106.83 268.36 105.9 267.88 105.41 267.63 105.26 267.81 105.57 268.14 106.15 245.14 105.96 241.5 105.35 240.16 105.12 240 105.18 240 105.95 240 107.05 239.45 107.03 238.53 105.9 237.68 104.85 234.75 104.56 234.39 105.5 234.22 105.93 233.95 105.88 233.12 105.23 232.19 104.49 228.8 104 228.8 104.6 228.8 104.71 229.29 105.69 229.9 106.77 231.13 108.96 230.79 110.06 229.45 108.22 228.01 106.22 225.52 103.6 225.07 103.6 224.84 103.6 225.03 103.96 225.5 104.39 226.38 105.22 228.8 108.57 228.8 108.97 228.8 109.76 227.4 108.81 224.62 106.15 222.79 104.41 221.36 103.32 221.27 103.6 221.18 103.87 221.26 104.21 221.45 104.35 221.65 104.49 222.52 105.68 223.4 107 226.77 112.08 226.83 113.4 223.52 109.8 217.5 103.27 216.64 102.4 216.14 102.4 215.69 102.4 215.68 102.56 216.1 103.27M149.52 104.1C145.93 108.45 145.6 108.99 146.31 109.26 146.73 109.42 147.19 109.26 147.5 108.86 148.26 107.84 149.54 106.36 151.27 104.5L152.84 102.8 151.72 102.8C150.94 102.8 150.27 103.2 149.52 104.1M321.6 103.21C319.95 103.38 317.79 103.7 316.8 103.93 315.81 104.16 313.87 104.56 312.49 104.83 309.69 105.37 309.52 105.88 311.45 107.97 312.36 108.95 312.4 108.96 312.4 108.15 312.4 106.73 312.7 106.63 323.4 104.38 324.28 104.2 325.72 103.78 326.6 103.45L328.2 102.86 326.4 102.88C325.41 102.9 323.25 103.05 321.6 103.21M144 103.72C144 103.94 143.59 104.49 143.09 104.95 142.59 105.42 141.65 106.52 140.99 107.4 140.34 108.28 139.57 109.24 139.3 109.53 138.54 110.33 138.68 110.47 140.1 110.35 141.3 110.25 143.97 108.01 143.99 107.08 144 106.91 144.38 106.37 144.83 105.88 146.43 104.19 146.5 103.71 145.19 103.51 144.54 103.42 144 103.51 144 103.72M153.26 105.52C150.34 108.22 150.27 108.45 152.49 108.25 153.93 108.12 158.94 104.28 158.3 103.79 157.08 102.86 155.59 103.37 153.26 105.52M138.4 105.52C137.84 106.11 136.76 107.41 136 108.4 135.23 109.39 134.47 110.26 134.3 110.33 133.68 110.61 134.03 111.15 134.9 111.27 135.78 111.4 136.46 110.71 137.04 109.1 137.18 108.72 137.45 108.4 137.65 108.4 137.84 108.4 138 108.21 138 107.97 138 107.74 138.45 106.96 139 106.24 140.59 104.15 140.15 103.63 138.4 105.52M160.17 105.63C159.56 106.27 159.28 106.8 159.55 106.8 159.83 106.8 159.93 107.02 159.77 107.3 159.61 107.58 159.83 107.45 160.24 107.02 160.66 106.59 161.32 105.94 161.71 105.57 162.29 105.02 162.31 104.85 161.85 104.68 161.54 104.56 160.79 104.99 160.17 105.63M290.03 104.72C290.01 105.01 289.82 105.14 289.61 105 289.37 104.86 289.31 105.03 289.46 105.41 289.62 105.83 289.84 105.92 290.1 105.66 290.31 105.45 290.39 105.03 290.28 104.74 290.11 104.31 290.06 104.3 290.03 104.72M132.01 107.23C131.1 108.52 130.14 109.81 129.86 110.09 128.74 111.23 128.76 112 129.92 112 130.53 112 131.24 111.69 131.51 111.3 135.77 105.14 135.64 105.41 134.43 105.09 133.83 104.94 133.27 105.44 132.01 107.23M286 105.1C285.24 105.19 284.47 105.48 284.3 105.73 284.07 106.09 283.93 106.09 283.69 105.72 283.52 105.46 283.02 105.31 282.59 105.39 282.16 105.47 281.68 105.55 281.52 105.57 281.37 105.59 281.27 105.93 281.31 106.34 281.35 106.98 281.56 107.03 282.78 106.76 283.56 106.59 285.03 106.4 286.04 106.35 287.61 106.27 287.86 106.15 287.7 105.53 287.59 105.13 287.48 104.83 287.45 104.86 287.42 104.9 286.77 105 286 105.1M196.67 105.47C196.17 105.97 196.4 106.4 197.17 106.4 198.21 106.4 199.2 105.99 199.2 105.56 199.2 105.15 197.07 105.07 196.67 105.47M128.27 105.87C127.84 106.29 127.96 107.67 128.4 107.4 129.18 106.92 129.68 105.6 129.08 105.6 128.78 105.6 128.41 105.72 128.27 105.87M301.2 106.8C300.65 106.93 300.22 107.25 300.24 107.52 300.26 107.78 300.31 108.95 300.34 110.1 300.4 112.15 300.43 112.2 301.6 112.2 302.93 112.2 303.05 111.64 302.47 108.18 302.22 106.7 302.11 106.58 301.2 106.8M294.9 107.74C292.31 108.13 291.98 108.48 292.8 110 293.08 110.52 293.07 110.84 292.76 111.03 292.2 111.37 291.61 110.49 291.61 109.3 291.6 108.67 291.36 108.4 290.8 108.4 290.1 108.4 290 108.67 290 110.56L290 112.72 294.1 112.51C298.98 112.26 298.94 112.29 298.38 109.67 297.85 107.19 298 107.27 294.9 107.74M306.58 107.85C306.74 108.26 306.98 109.28 307.09 110.1 307.22 111 307.52 111.6 307.85 111.6 309.04 111.6 308.12 107.7 306.84 107.28 306.42 107.14 306.35 107.29 306.58 107.85M349.45 108.02C344.55 108.86 343.75 109.2 346.63 109.2 351.14 109.21 358.8 108.29 358.8 107.74 358.8 106.98 354.87 107.1 349.45 108.02M203.6 108.55C203.6 108.63 204.91 109.1 206.5 109.58 208.1 110.07 209.71 110.63 210.1 110.83 211.17 111.4 212.4 111.27 212.4 110.59 212.4 109.99 211.89 109.71 209.17 108.85 207.86 108.44 203.6 108.21 203.6 108.55M284.61 109.23C283.07 109.41 281.75 109.74 281.68 109.98 281.44 110.68 280.4 110.45 280.39 109.7 280.39 109.24 280.29 109.16 280.09 109.47 279.81 109.91 276.6 110.4 268.78 111.21 266.9 111.4 264.2 111.73 262.78 111.95 261.36 112.16 258.77 112.46 257.02 112.61 254.54 112.82 254.01 112.97 254.59 113.3 255.09 113.58 260.27 113.6 270.76 113.37 279.25 113.19 286.84 113.03 287.63 113.02L289.06 113 288.75 111.4C288.58 110.52 288.43 109.58 288.42 109.3 288.41 109.03 288.18 108.82 287.9 108.85 287.63 108.88 286.14 109.05 284.61 109.23M304.34 110.52C304.22 112.08 304.29 112.28 304.85 111.98 305.2 111.78 305.61 111.74 305.75 111.88 306.1 112.24 305.16 109.48 304.79 109.06 304.62 108.88 304.42 109.54 304.34 110.52M317.96 110.16C315.39 110.43 313.78 110.76 313.87 111.02 314.05 111.53 325.23 110.65 326.29 110.04 327.21 109.5 323.83 109.55 317.96 110.16M178.05 112.74C177.36 113.61 176.8 114.45 176.8 114.62 176.8 114.78 176.17 115.53 175.4 116.28 174.24 117.4 173.44 118.72 172.07 121.7 172 121.87 172.38 122 172.93 122 173.48 122 174.02 122.23 174.14 122.5 174.25 122.79 174.35 122.68 174.37 122.26 174.39 121.86 174.65 121.05 174.96 120.46 175.27 119.88 176.03 118.32 176.65 117 177.27 115.68 178.22 113.92 178.75 113.09 180.07 111.04 179.59 110.8 178.05 112.74M184.83 112.76C184.16 113.61 183.6 114.51 183.6 114.76 183.6 115 183.43 115.2 183.23 115.2 183.02 115.2 182.73 115.61 182.57 116.1 182.42 116.6 182.18 117.09 182.05 117.2 181.91 117.31 181.4 118.25 180.91 119.28L180.03 121.16 180.9 120.84C181.37 120.67 181.9 120.27 182.06 119.96 182.81 118.57 186.27 111.2 186.17 111.2 186.12 111.2 185.51 111.9 184.83 112.76M339.6 111.99C334.41 112.4 330.37 112.91 329.4 113.28 321.79 116.2 321.42 116.64 326.9 116.26 337.53 115.53 358.45 111.01 350.1 111.26 349.06 111.29 344.33 111.62 339.6 111.99M196 112.83C196 114.1 198.68 118.4 199.47 118.4 199.55 118.4 199.34 117.82 198.99 117.1 197.36 113.73 196 111.79 196 112.83M315.57 113.78C315.75 114.01 315.96 114.42 316.05 114.68 316.15 115.02 316.49 114.94 317.16 114.43L318.13 113.7 316.68 113.53C315.72 113.42 315.35 113.5 315.57 113.78M301.5 114.45C300.87 114.8 289.73 115.4 273.03 115.99 263.39 116.33 247.35 116.03 239.59 115.37 237.52 115.19 235.34 115.32 232.65 115.78 230.48 116.15 228.49 116.37 228.22 116.26 227.95 116.16 227.47 116.24 227.16 116.43 226.69 116.73 226.69 116.79 227.2 116.8 227.53 116.8 229.38 117.6 231.3 118.58 233.23 119.56 234.8 120.23 234.8 120.08 234.8 119.93 236.47 119.92 238.5 120.06 244.27 120.47 268.7 120.42 275.8 119.98 291.09 119.04 295.36 118.75 301.3 118.29 305.5 117.95 307.61 117.92 307.63 118.19 307.68 118.87 308.74 115.86 308.77 114.94 308.8 113.97 307.63 113.84 307.05 114.75 306.85 115.08 306.61 115.14 306.45 114.9 306.12 114.39 302.24 114.03 301.5 114.45M148 115.43C145.05 116.25 136.15 117.89 134.4 117.94 134.07 117.95 132.55 118.14 131.02 118.35 129.49 118.57 128.11 118.67 127.96 118.58 127.34 118.19 126.93 119.45 127.27 120.7 127.68 122.2 127.74 122.21 132.2 121.42 133.96 121.11 137.47 120.58 140 120.24 146.37 119.38 146.28 119.41 148.14 117.71 149.05 116.88 150.34 115.8 151 115.31 152.46 114.23 152.28 114.24 148 115.43M313.6 114.44C313.6 114.53 313.43 115.19 313.23 115.9 312.9 117.06 312.93 117.16 313.53 116.81 315.21 115.85 315.25 115.77 314.41 115.01 313.96 114.61 313.6 114.35 313.6 114.44M157.2 115.17C155.84 115.54 153.65 116.6 152.2 117.58L151 118.4 152.06 118.4C153.12 118.4 157.09 116.61 158.6 115.44 159.48 114.77 159.01 114.68 157.2 115.17M354.8 118.18C353.59 118.46 351.25 119.17 349.6 119.77 341.62 122.64 338.24 123.64 326.4 126.65 310.64 130.65 308.4 130.84 308.4 128.18 308.4 126.74 309.59 126.17 315 125.03 321.55 123.65 334.9 119.66 333.13 119.62 332.76 119.61 331.14 119.77 329.53 119.99 322.11 120.96 314.76 121.24 313.46 120.59 312.46 120.09 311.45 120.02 308.4 120.23 303.42 120.59 302.38 121.17 306.73 121.19 313.52 121.21 313.56 123.41 306.8 125.8 294.24 130.26 287 131.17 261.53 131.48 241.38 131.72 241.01 131.76 244.32 133.45 245.14 133.86 245.89 134.31 246 134.44 246.11 134.57 246.61 134.89 247.1 135.15 248.11 135.69 248.32 136.8 247.4 136.8 247.07 136.8 246.8 137.05 246.8 137.35 246.8 137.65 247.07 138.13 247.4 138.4 247.73 138.67 248 139.15 248 139.45 248 139.75 248.16 140 248.35 140 248.55 140 248.8 140.32 248.92 140.7 249.04 141.09 249.48 142.31 249.9 143.42 250.33 144.53 250.69 145.99 250.71 146.65 250.73 147.31 251.13 148.52 251.61 149.33 252.71 151.2 251.44 151.56 250.3 149.7 249.92 149.1 249.26 148.15 248.81 147.6L248 146.6 248.46 148C248.71 148.77 249.3 149.76 249.79 150.2 252.94 153.07 255.51 157.3 254.35 157.69 253.42 158 254.84 160.8 255.93 160.8 264.01 160.8 272.85 159.85 276.75 158.56 285.68 155.61 294.07 154.16 313.6 152.2 327.1 150.85 333.81 149.68 341.6 147.34 346.19 145.96 347.39 145.5 350.8 143.82 355.04 141.73 355.16 141.48 352.3 140.66 344.05 138.29 330.59 137.85 319 139.58 317.68 139.78 314.8 140.15 312.6 140.4 310.4 140.66 307.61 141.04 306.4 141.25 305.19 141.46 302.94 141.79 301.4 141.98 299.86 142.17 295.99 142.69 292.8 143.13 282.24 144.61 280.24 144.8 272.76 145.06 257.97 145.58 260.24 142.72 278 138.47 289.5 135.71 294.15 134.94 313.4 132.63 316.04 132.31 320.18 131.86 322.6 131.63 325.02 131.4 329.61 130.94 332.8 130.63 335.99 130.31 341.48 129.85 345 129.61 348.52 129.37 353.02 129.04 355 128.88L358.6 128.6 358.84 123.6C359.17 116.91 359.35 117.15 354.8 118.18M205.77 121.3C205.92 122.24 206.06 123.19 206.09 123.41 206.11 123.64 206.44 123.83 206.81 123.83 207.36 123.83 207.43 123.62 207.19 122.81 206.17 119.43 205.32 118.52 205.77 121.3M203.03 121.58C203.14 122.56 203.43 123.6 203.68 123.89 204.41 124.77 204.51 124.15 203.86 122.73 203.53 122 203.16 121.04 203.04 120.6 202.92 120.16 202.92 120.6 203.03 121.58M211.56 121.3C211.53 121.8 211.46 122.83 211.4 123.6 211.34 124.37 211.37 124.69 211.47 124.3 211.69 123.49 212.63 123.36 212.95 124.1 213.16 124.59 213 123.38 212.59 121.4 212.33 120.16 211.62 120.09 211.56 121.3M199.2 122.37C199.2 123.69 199.34 124 199.94 124 200.56 124 200.64 123.78 200.44 122.53 200.09 120.42 199.2 120.3 199.2 122.37M193.2 122.76C193.2 123.39 193.46 124.01 193.77 124.14 194.31 124.34 194.36 123.96 194.05 121.9 193.92 121.04 193.2 121.77 193.2 122.76M158.51 123.16C158.14 123.77 158.15 123.97 158.59 124.14 158.89 124.26 159.24 124.08 159.37 123.74 159.92 122.3 159.31 121.89 158.51 123.16M183.6 123.34C183.6 123.65 183.96 124 184.4 124.12 184.84 124.23 185.2 124.17 185.2 123.98 185.2 123.79 184.84 123.44 184.4 123.2 183.78 122.87 183.6 122.9 183.6 123.34M264.4 124.03C259.89 124.19 253.56 124.52 250.33 124.76 247.09 125 243.26 125.2 241.8 125.2 240.14 125.2 239.25 125.35 239.4 125.6 239.54 125.82 239.29 126 238.85 126 238.41 126 237.95 125.84 237.82 125.64 237.63 125.32 236.9 125.3 234.4 125.55 233.53 125.63 236.02 127.19 237.03 127.2 237.49 127.2 237.99 127.32 238.14 127.47 240.14 129.47 274.42 129.41 289.2 127.38 294.53 126.65 302.1 124.75 302.31 124.1 302.49 123.53 279.16 123.49 264.4 124.03M138.6 125.01C132.86 125.8 132.7 125.94 137.66 125.87 140.69 125.82 142.25 125.94 142.1 126.2 141.98 126.42 142.13 126.33 142.44 126 142.75 125.67 143.26 125.18 143.58 124.9 144.29 124.29 143.75 124.3 138.6 125.01M200.87 126.3C200.83 126.58 200.46 126.8 200.04 126.8 199.41 126.8 199.25 127.15 199.14 128.8 199.03 130.38 199.13 130.8 199.6 130.79 200.92 130.78 201.25 130.16 201.1 127.96 201.02 126.77 200.92 126.03 200.87 126.3M207.3 126.31C206.69 126.41 206.4 126.74 206.4 127.33 206.39 127.81 206.28 128.6 206.15 129.1 205.93 129.91 206.05 130 207.3 130L208.7 130 208.5 128.1C208.39 127.06 208.27 126.19 208.25 126.18 208.22 126.18 207.8 126.23 207.3 126.31M212.36 126.26C211.92 126.38 211.78 126.74 211.91 127.42 212.01 127.96 211.87 128.68 211.59 129.01 210.95 129.78 211.2 130.03 212.32 129.74 213.06 129.54 213.2 129.23 213.2 127.75 213.2 126.79 213.16 126.02 213.1 126.05 213.05 126.07 212.71 126.17 212.36 126.26M221.2 127.6C221.2 128.93 221.33 129.2 222 129.2 222.94 129.2 222.96 129.09 222.32 127.33 221.67 125.54 221.2 125.65 221.2 127.6M203.45 127.01C202.4 128.06 202.59 130.27 203.75 130.49 204.66 130.66 204.69 130.6 204.51 128.64 204.29 126.21 204.27 126.19 203.45 127.01M163.44 129.1C161.76 134.38 161.82 134.04 162.6 133.75 162.94 133.61 163.22 133.75 163.24 134.06 163.29 134.59 164.26 131.23 164.67 129.14 165.14 126.76 164.19 126.73 163.44 129.1M174.8 127.34C174.8 127.59 174.55 128.26 174.26 128.83 173.97 129.39 173.6 130.34 173.45 130.93 173.3 131.54 172.91 132 172.54 132 171.88 132 171.89 131.61 172.64 128.3 172.89 127.24 172.84 127.2 171.25 127.2 169.87 127.2 169.6 127.33 169.6 128 169.6 128.53 169.33 128.8 168.8 128.8 168.36 128.8 168 128.58 168 128.32 168 127.29 167.21 128.69 166.49 131.01L165.74 133.42 169.77 133.11C171.99 132.95 175.22 132.63 176.96 132.41 178.7 132.18 181.07 132 182.23 132L184.33 132 184.47 129.5 184.6 127 183.13 127.04C182.31 127.07 181.34 127.4 180.96 127.79 180.35 128.39 180.19 128.41 179.83 127.91 179.1 126.93 177.6 126.75 177.6 127.64 177.6 128.07 177.43 128.72 177.22 129.1 177.02 129.49 176.74 130.29 176.62 130.9 176.49 131.51 176.21 132 175.99 132 175.5 132 175.49 130.2 175.96 128.53 176.27 127.46 176.21 127.24 175.56 127.07 175.14 126.96 174.8 127.08 174.8 127.34M192.8 128.37C192.8 129.23 192.69 130.22 192.56 130.57 192.37 131.04 192.57 131.2 193.36 131.2 194.36 131.2 194.4 131.1 194.4 129 194.4 127.07 194.3 126.8 193.6 126.8 192.94 126.8 192.8 127.07 192.8 128.37M196 128.75C196 130.46 196.11 130.73 196.9 130.88 197.76 131.04 197.79 130.95 197.66 128.93 197.47 125.88 196 125.73 196 128.75M215.92 128.93C215.77 129.71 215.87 129.85 216.49 129.69 216.9 129.59 217.19 129.22 217.12 128.88 216.92 127.87 216.11 127.9 215.92 128.93M128.9 130.67C127.82 131.1 128.48 131.54 129.9 131.32 132.52 130.91 133.21 130.45 131.2 130.46 130.21 130.46 129.18 130.55 128.9 130.67M351.2 131.65C330.22 133.17 304.92 135.86 294.8 137.64 283.74 139.59 276.7 141.13 273.8 142.24 272.73 142.65 283.69 141.86 288.8 141.16 291.99 140.72 295.86 140.19 297.4 139.99 298.94 139.78 302 139.33 304.2 139 308.85 138.29 311.85 137.92 322 136.81 334.44 135.45 343.93 135.85 351.92 138.06 357.72 139.67 357.22 140.02 357.83 133.9L358.09 131.2 356.95 131.26C356.32 131.29 353.73 131.47 351.2 131.65M230.16 133.1C231.07 138.73 230.7 150.8 229.6 150.8 229.45 150.8 229.22 148.6 229.09 145.9 228.97 143.21 228.66 140.1 228.4 139 226.46 130.88 226.24 130.7 226 137 225.8 142.27 225.09 144.22 224.91 140 224.86 138.79 224.61 136.5 224.35 134.9L223.89 132 222.54 132 221.2 132 221.2 136.55C221.2 141.7 220.93 143.6 220.19 143.6 219.56 143.6 219.2 142.7 219.2 141.12 219.2 140.07 219.11 139.97 218.59 140.41 217.67 141.17 217.42 140.58 217.94 138.86 219.01 135.29 218.47 132 216.81 132 215.6 132 215.21 133.52 215.2 138.22 215.2 140.51 214.3 142.23 213.63 141.22 213.42 140.9 213.36 140.11 213.49 139.46 213.72 138.32 213.68 138.29 212.56 138.59 211.92 138.76 211.13 138.92 210.8 138.95 210.47 138.98 209.98 139.5 209.72 140.1 209.16 141.38 208.4 141.56 208.4 140.4 208.4 139.96 208.36 139.6 208.3 139.6 208.17 139.6 204.79 140.18 199.06 141.18 196.45 141.63 193.81 142 193.19 142 191.88 142 191.98 141.46 191.19 152.8 190.42 163.79 190.27 168.4 190.69 168.4 190.9 168.4 192.85 168.13 195.04 167.79 197.22 167.46 200.35 166.99 201.99 166.76 203.64 166.52 205.09 166.27 205.22 166.19 205.35 166.11 206.88 165.86 208.63 165.63 210.37 165.41 213.55 164.95 215.68 164.62 219.51 164.03 225.49 163.31 234.27 162.38 237.76 162.01 238.78 161.76 238.95 161.25 239.06 160.89 239.61 159.34 240.16 157.8 241.36 154.46 241.5 153.25 240.6 154 240.27 154.27 240 154.66 240 154.86 240 155.05 239.57 155.89 239.05 156.72 238.53 157.54 237.98 158.79 237.83 159.48 237.45 161.18 236.56 161.93 236.21 160.84 235.94 159.99 236.69 157.41 237.98 154.75 238.4 153.88 238.86 152.64 239 151.99 239.15 151.34 239.43 150.71 239.63 150.58 240.22 150.22 240.06 146.52 239.4 144.93 238.67 143.19 238.36 143.4 237.95 145.91 237.55 148.38 236.47 152.69 235.21 156.9 233.85 161.43 233.68 156 235.02 150.6 235.68 147.92 235.99 145.83 236.62 139.92 236.89 137.43 236.47 136 235.48 136 235.38 136 235.21 138.66 235.1 141.9 235 145.15 234.69 148.7 234.41 149.8 232.4 157.94 232.04 157.04 232.13 144.1 232.2 133.01 232.02 131.6 230.54 131.6 230.04 131.6 229.96 131.9 230.16 133.1M159.59 132.26C158.06 132.67 157.92 134 159.4 134 160.63 134 160.8 133.88 160.8 133 160.8 132 160.72 131.95 159.59 132.26M212.34 132.28C210.49 132.57 210.47 136 212.32 136L213.64 136 213.52 134C213.45 132.9 213.4 132.03 213.4 132.06 213.4 132.09 212.92 132.19 212.34 132.28M202.43 134.1L202.4 136 205.6 136 208.8 136 208.8 134.35 208.8 132.69 205.84 132.96C203.6 133.16 202.83 133.1 202.67 132.71 202.56 132.43 202.45 133.06 202.43 134.1M196.01 133.62C194.36 133.79 192.88 133.85 192.71 133.74 192.54 133.64 192.4 134.21 192.4 135L192.4 136.45 196.8 136.36 201.2 136.26 201.2 134.73C201.2 132.99 201.48 133.05 196.01 133.62M135.1 134.32C134.87 134.6 134.46 134.76 134.21 134.66 133.57 134.42 128.98 135.37 129.1 135.72 129.16 135.87 129.2 136.28 129.2 136.61 129.2 137.12 129.72 137.19 132.44 137.04L135.68 136.85 136.87 135.24 138.05 133.63 136.79 133.71C136.1 133.76 135.34 134.03 135.1 134.32M241.2 134.49C241.2 135.2 242.95 137.77 244.09 138.74 244.79 139.32 245.68 140.15 246.08 140.57 247.39 141.98 246.83 140.72 245.31 138.84 243.29 136.34 241.21 134.14 241.2 134.49M176.4 135.22C174.75 135.38 171.33 135.65 168.8 135.82 166.24 135.99 164.07 136.32 163.91 136.56 163.09 137.79 162.8 137.78 178.9 136.94 183.51 136.7 183.6 136.68 183.6 135.75 183.6 134.68 182.64 134.61 176.4 135.22M156.8 137.46C156.8 137.86 157.48 138 159.4 138 161.47 138 162 137.88 162 137.39 162 136.89 161.5 136.79 159.4 136.84 157.51 136.9 156.8 137.07 156.8 137.46M179.4 139.26C177.2 139.41 171.08 139.73 165.8 139.97 158.18 140.33 156.11 140.54 155.76 141.01 155.25 141.68 154.4 141.8 154.4 141.2 154.4 140.24 153.76 140.91 153.68 141.96 153.61 142.88 153.74 143.1 154.3 142.99 154.68 142.92 158.24 142.65 162.2 142.41 166.16 142.16 172.32 141.69 175.9 141.35 179.47 141.02 182.55 140.85 182.75 140.97 182.95 141.09 183.2 140.7 183.32 140.1 183.44 139.49 183.5 139 183.47 138.99 183.43 138.99 181.6 139.11 179.4 139.26M192.4 139.2C192.4 139.42 192.84 139.6 193.38 139.6 193.91 139.6 194.46 139.42 194.6 139.2 194.74 138.97 194.34 138.8 193.62 138.8 192.95 138.8 192.4 138.98 192.4 139.2M135.49 143.15C134.84 144.26 134.84 144.32 135.56 144.51 136.07 144.64 136.48 144.39 136.83 143.75 137.11 143.23 137.49 142.8 137.67 142.8 137.85 142.8 138 142.62 138 142.4 138 141.48 136.15 142.04 135.49 143.15M131.69 144C131.29 144.64 131.29 144.78 131.7 144.7 132.24 144.59 132.78 143.99 132.79 143.5 132.81 142.93 132.19 143.21 131.69 144M181.15 143.38C180.96 143.58 173.96 144.13 163.2 144.81 154.63 145.34 154 145.45 154 146.38 154 147.03 154.44 147.17 157.1 147.4 163.35 147.95 167.2 149 167.2 150.17 167.2 150.43 168.01 151.03 169 151.51 169.99 152 170.8 152.65 170.8 152.96 170.8 154.44 166.02 158.43 161.59 160.64 160.39 161.24 158.14 162.56 156.6 163.57L153.8 165.4 156.8 165.68C166.37 166.57 175.85 168.49 176.95 169.74 177.46 170.34 178.16 170.6 179.2 170.6L180.7 170.6 180.76 167.54C180.8 165.85 181 163.42 181.21 162.14 181.42 160.85 181.6 158.63 181.61 157.2 181.61 155.77 181.88 152.44 182.2 149.8 182.96 143.46 182.96 143.2 182.07 143.2 181.66 143.2 181.25 143.28 181.15 143.38M351.81 146.08C343.67 150.23 333.64 152.63 317.2 154.37 312.01 154.92 299.51 156.36 296 156.81 292.51 157.26 283.2 159.07 282.91 159.35 282.83 159.44 292.81 159.59 305.08 159.69L327.4 159.88 330.8 158.29C332.67 157.43 334.74 156.47 335.4 156.17 347.35 150.78 355.6 146.39 355.6 145.43 355.6 144.14 355.64 144.13 351.81 146.08M145.41 146.14C145.29 146.5 145.12 147.07 145.01 147.4 144.91 147.73 144.98 148 145.17 148 145.35 148 145.6 147.51 145.72 146.9 145.96 145.67 145.73 145.13 145.41 146.14M148.4 146.79C148.4 147.58 148.6 147.8 149.32 147.8 150.07 147.8 150.21 147.62 150.08 146.79 149.98 146.1 149.68 145.77 149.17 145.77 148.61 145.77 148.4 146.05 148.4 146.79M149.7 151.13C148.42 151.31 149.15 160.09 150.57 161.5 152.19 163.12 163.53 154.49 162.69 152.28 162.42 151.6 158.92 150.8 156.17 150.8L154 150.8 154 154.16C154 157.46 153.78 158 152.44 158 152.18 158 150.97 153.67 150.71 151.8 150.63 151.22 150.35 151.04 149.7 151.13M145.2 151.62C145.2 151.86 145.01 151.93 144.79 151.79 144.25 151.46 144.59 159.74 145.19 161.41 145.46 162.19 145.89 162.63 146.38 162.63 147.01 162.63 147.07 162.5 146.71 161.84 146.21 160.9 145.19 152.5 145.48 151.73 145.59 151.44 145.58 151.2 145.44 151.2 145.31 151.2 145.2 151.39 145.2 151.62M140.29 155.33C139.87 156.4 139.93 160.4 140.37 160.4 141 160.4 141.18 159.11 140.87 156.8 140.67 155.28 140.49 154.82 140.29 155.33M346.91 158.12C341.8 160.22 341.8 160.46 346.89 160.31L350.98 160.2 351.68 158.3C352.58 155.87 352.4 155.86 346.91 158.12M242.07 159.18L240.75 161.6 241.76 161.6C242.86 161.6 243.82 159.49 243.54 157.66 243.43 156.92 243.16 157.19 242.07 159.18M248.18 159.44C248.05 159.86 247.78 160.51 247.58 160.89 247.3 161.41 247.35 161.52 247.81 161.34 248.14 161.22 248.52 160.67 248.65 160.14 248.94 158.97 248.52 158.35 248.18 159.44M276.77 162.57C276.67 162.66 271.96 162.78 266.29 162.84 259.28 162.91 256.11 163.07 256.39 163.35 256.62 163.58 256.8 164.53 256.8 165.47 256.8 166.48 257.13 167.72 257.6 168.49 258.04 169.21 258.4 169.62 258.4 169.4 258.4 169.14 263.86 168.99 273.9 168.97 293.77 168.93 301.24 167.95 312.59 163.88 314.7 163.13 314.86 163 313.99 162.76 312.94 162.46 277.05 162.28 276.77 162.57M318.18 163.14C317.3 163.92 308.61 166.95 304.2 168.02 295.59 170.1 288.18 170.85 273 171.18 265.52 171.33 261.87 171.49 264.88 171.53 277.69 171.69 287.81 173.98 294 178.11L295.8 179.31 300.8 178.85C303.55 178.6 307.69 178.22 310 178 312.31 177.78 317.17 177.32 320.8 176.99 330.82 176.05 342.08 174.86 343.45 174.58 344.34 174.4 349.2 165.48 349.2 164.02 349.2 163.39 348.76 163.3 345.5 163.25 343.47 163.22 340.25 163.09 338.35 162.95 335.46 162.75 334.55 162.84 332.75 163.51 326.43 165.87 323.44 166.02 323 164 322.73 162.77 319.29 162.15 318.18 163.14M239.2 164.25C239.2 164.52 238.97 164.98 238.7 165.27 238.42 165.56 237.93 166.34 237.61 167 237.29 167.66 236.96 168.34 236.88 168.5 236.14 170.03 239.93 168.6 240.9 166.98 242.35 164.59 242.3 164.12 240.6 163.92 239.67 163.82 239.2 163.93 239.2 164.25M246.41 164.37C246.19 164.8 246 165.44 246 165.79 246 166.15 245.74 166.95 245.41 167.58 244.85 168.66 244.87 168.72 245.78 168.89 246.89 169.11 247.55 168.03 248 165.3 248.3 163.41 247.26 162.8 246.41 164.37M233.4 164.66C226.26 165.2 201.72 168.53 192.8 170.15L190.2 170.63 189.95 173.41C189.61 177.17 189.55 190.37 189.86 191.54 190.08 192.35 190.29 192.44 191.36 192.22 192.61 191.96 200.19 190.7 204.6 190.01 205.92 189.81 208.71 189.37 210.8 189.04 212.89 188.71 216.13 188.24 218 188 219.87 187.75 223.2 187.3 225.4 187 227.6 186.71 230.93 186.27 232.8 186.03 234.67 185.79 238.14 185.32 240.51 185 242.88 184.67 245.45 184.4 246.22 184.4 247.46 184.4 247.65 184.26 247.86 183.19 248 182.53 248.26 181.89 248.45 181.77 248.64 181.65 248.8 181.3 248.8 180.98 248.8 180.67 249.4 179.47 250.14 178.31 252.5 174.61 252.89 173.68 252.09 173.75 251.26 173.81 250.81 174.35 250.81 175.32 250.8 175.72 250.17 177.02 249.4 178.23 248.63 179.43 248 180.58 248 180.79 248 180.99 247.78 181.3 247.5 181.48 247.23 181.66 246.8 182.16 246.56 182.6 245.88 183.82 244.64 183.93 245.02 182.74 245.18 182.22 245.42 181.71 245.56 181.6 245.96 181.28 247.57 177.92 247.96 176.6 248.16 175.94 248.44 175.1 248.59 174.73 248.8 174.21 248.61 174.03 247.73 173.93 246.47 173.79 245.52 174.85 244.19 177.9 243.54 179.38 241.99 180.38 242.01 179.3 242.02 178.84 243.19 175.57 243.66 174.69 243.89 174.26 243.93 174 243.74 174.12 241.33 175.61 208.53 176.31 207.13 174.9 206.67 174.45 206.42 173.89 206.57 173.65 207.38 172.34 219.24 170.05 229.92 169.15L235.25 168.7 236.09 166.85C236.55 165.83 237 164.87 237.09 164.7 237.24 164.41 236.73 164.4 233.4 164.66M148.51 168.43C148.9 169.06 148.9 169.29 148.5 169.54 148.12 169.77 148.26 170.11 149.04 170.83 149.61 171.36 150.43 172.49 150.87 173.34 151.59 174.74 151.77 174.86 152.93 174.66 153.63 174.54 155.64 174.24 157.4 173.98 160.26 173.57 163.98 172.79 169.1 171.55 171.98 170.85 171.4 170.21 167.35 169.6 155.85 167.87 147.86 167.38 148.51 168.43M243.72 171.47C243.08 172.82 244.48 172.98 245.25 171.64 245.82 170.66 245.8 170.6 244.99 170.6 244.5 170.6 243.95 170.97 243.72 171.47M256.8 170.78C256.8 171.06 256.55 171.19 256.25 171.07 255.85 170.92 255.75 171.09 255.9 171.66 256.05 172.23 256.2 172.32 256.42 171.98 256.59 171.7 257.02 171.6 257.42 171.75 258.03 171.99 258.05 171.93 257.57 171.31 257.27 170.92 256.98 170.53 256.91 170.43 256.85 170.34 256.8 170.5 256.8 170.78M231.4 171.42C217.41 172.44 212.94 173.76 224.6 173.43 236.31 173.08 241.37 172.73 241.69 172.24 242.59 170.89 240.96 170.19 239.74 171.4 239.41 171.73 238.87 172 238.53 172 238.15 172 238 171.77 238.15 171.4 238.27 171.07 238.34 170.83 238.29 170.86 238.24 170.89 235.14 171.14 231.4 171.42M248.07 171.64C247.71 172.22 247.69 172.39 248.02 172.19 248.28 172.03 248.63 172.12 248.8 172.39 248.98 172.7 249.1 172.49 249.1 171.84 249.1 170.58 248.77 170.52 248.07 171.64M144.31 172.51C144.53 172.78 144.83 173.56 144.97 174.24 145.2 175.31 147.2 175.93 147.2 174.93 147.2 174.27 146.22 173.17 145.16 172.64 144.4 172.26 144.07 172.21 144.31 172.51M175.8 172.87C174.7 173.07 172.81 173.39 171.6 173.57 170.39 173.76 167.96 174.27 166.2 174.72 161.78 175.84 154.26 177.16 152.12 177.19 151.86 177.2 151.19 178.1 150.64 179.2 150.09 180.3 149.27 181.59 148.82 182.07 147.43 183.56 149.55 187.15 152.32 188.01 158.1 189.8 162.3 191.55 162.58 192.29 162.79 192.85 159.83 196 159.1 196 158.94 196 158.8 196.24 158.8 196.54 158.8 197.31 160.18 198.45 160.63 198.05 160.83 197.87 162.71 197.41 164.8 197.04 166.89 196.67 169.32 196.2 170.2 196 172.85 195.38 178.13 194.4 179.29 194.31L180.38 194.23 180.49 183.71C180.63 170.79 181.1 171.88 175.8 172.87M260.7 174.06C260.96 175.05 260.1 175.33 259.61 174.41 259.32 173.88 258.77 173.6 258 173.6L256.83 173.6 258.24 176.3C259.01 177.79 259.81 179.17 260.02 179.38 260.49 179.85 260.52 181.2 260.06 181.2 259.62 181.2 257.65 178.87 257.1 177.7 256.86 177.21 256.52 176.8 256.34 176.8 255.72 176.8 255.99 178.13 257.1 180.47 258.34 183.1 257.92 182.97 263.6 182.39 265.69 182.17 269.2 181.82 271.4 181.61 284.15 180.38 291.42 179.54 291.71 179.25 292.62 178.34 286.08 175.83 279 174.38 274.79 173.51 260.49 173.26 260.7 174.06M337.8 178.26C333.75 178.73 308.03 181.2 298.8 182 294.27 182.4 289.61 182.84 277.2 184.04 274.89 184.26 271.2 184.69 269 185 266.8 185.31 263.81 185.67 262.35 185.81 259.97 186.03 259.71 186.14 259.89 186.83 260.13 187.75 260.52 187.77 265.3 187.04 267.34 186.73 270.89 186.28 273.2 186.04 288.38 184.44 291.29 184.12 300.2 183.02 302.84 182.7 307.07 182.24 309.6 182.01 312.13 181.78 316.18 181.4 318.6 181.17 321.02 180.94 326.98 180.65 331.85 180.52L340.7 180.28 341.37 179.14 342.05 178 340.52 178.06C339.69 178.09 338.46 178.18 337.8 178.26M250.72 181.1C249.42 182.58 249.12 183.58 249.76 184.22 250.29 184.75 250.39 184.65 250.63 183.31 250.78 182.48 251.09 181.57 251.31 181.29 251.95 180.49 251.4 180.31 250.72 181.1M331.2 183.47C326.02 183.62 316 184.37 310.2 185.02 307.34 185.34 303.29 185.79 301.2 186.02 299.11 186.25 295.33 186.69 292.8 187 290.27 187.31 286.22 187.75 283.8 187.98 277.9 188.54 264.31 189.98 261.71 190.32 259.66 190.6 259.63 190.62 260.11 191.56 260.69 192.69 260.4 192.65 268.67 192.96 276.65 193.26 278.25 193.73 274.97 194.81 272.6 195.59 273.54 195.62 281.43 195 286.19 194.63 294.33 194.4 303.34 194.4 315.8 194.4 327.51 193.96 330.24 193.39 331.31 193.17 336 187.29 336 186.17 336 185.7 336.36 185 336.79 184.61 337.82 183.68 337.47 183.18 335.88 183.28 335.17 183.33 333.07 183.41 331.2 183.47M250.8 187.6C250.8 188.26 250.97 188.8 251.17 188.8 251.38 188.8 251.53 188.26 251.51 187.6 251.49 186.94 251.33 186.4 251.14 186.4 250.95 186.4 250.8 186.94 250.8 187.6M253.34 187.55C252.95 188.58 252.99 188.68 253.65 188.5 254.12 188.38 254.4 187.95 254.4 187.35 254.4 186.06 253.87 186.15 253.34 187.55M248.4 187.2C247.85 187.38 246.59 187.54 245.6 187.56 243.83 187.59 241.51 187.87 233.2 189.03 226.91 189.91 219.02 191.32 216.6 192 215.94 192.18 214.69 192.45 213.83 192.6 212.68 192.79 212.41 192.96 212.83 193.23 213.71 193.78 219.73 193.67 223.98 193.02 226.08 192.69 230.86 191.97 234.6 191.41 238.34 190.86 242.57 190.22 244 190 245.43 189.78 247.17 189.56 247.87 189.52 248.98 189.45 249.15 189.28 249.29 188.12 249.37 187.39 249.43 186.82 249.42 186.84 249.41 186.86 248.95 187.02 248.4 187.2M256.81 190.72C256.81 191.01 256.62 191.14 256.4 191 256.17 190.86 256 191.2 256 191.78 256 192.52 256.21 192.8 256.78 192.8 257.86 192.8 258.02 192.36 257.38 191.2 257.08 190.65 256.82 190.44 256.81 190.72M154 191.15C154 191.34 154.7 192.29 155.56 193.25L157.12 195 158.26 194.16C159.81 193.01 159.74 192.87 157.03 191.76 154.45 190.71 154 190.62 154 191.15M251.4 191.63C250.3 191.8 248.37 192.07 247.1 192.23 245.84 192.39 244.8 192.69 244.8 192.91 244.8 193.16 245.6 193.22 246.9 193.06 248.06 192.92 250.13 192.81 251.5 192.8 253.73 192.8 254 192.71 254 192 254 191.56 253.87 191.22 253.7 191.25 253.54 191.28 252.5 191.45 251.4 191.63M199.8 193.77C198.26 194.04 195.45 194.5 193.55 194.79 190.48 195.26 190.13 195.4 190.3 196.07 190.52 196.91 193.1 196.88 200.78 195.96 204.86 195.47 204.96 195.41 204.15 194.18 203.43 193.08 203.6 193.1 199.8 193.77M258.8 193.51C258.8 193.7 258.11 193.85 257.26 193.83 255.74 193.8 255.71 193.83 255.34 195.66 254.97 197.46 254.98 197.51 255.8 197.2 256.27 197.02 257.72 196.76 259.03 196.61 262.98 196.16 270.18 194.77 270.58 194.37 270.93 194.03 269.24 193.91 261.98 193.79 260.76 193.77 259.55 193.61 259.28 193.45 259.02 193.29 258.8 193.31 258.8 193.51M245.6 194.42C232.04 195.14 224.79 195.63 222.2 196 210.83 197.66 199.28 199.07 193.85 199.47L190.29 199.73 190.56 203.36C190.71 205.36 191 208.8 191.2 211 191.41 213.2 191.58 216.26 191.6 217.8 191.61 219.37 191.84 220.87 192.11 221.2 193.05 222.35 202.66 226.43 208.2 228.02 208.86 228.21 210.39 228.66 211.6 229.01 223.55 232.52 237.21 234 250 233.19 253.85 232.95 257.72 232.58 258.6 232.38 259.48 232.18 260.96 232.02 261.9 232.01 264.76 231.99 263.79 231.33 260.5 231.05 251.94 230.33 249.6 229.71 249.6 228.19 249.6 226.94 250.87 226.33 255 225.61 256.54 225.34 258.7 224.95 259.8 224.74 260.9 224.53 264.59 224.19 268 223.98 295.3 222.27 293.41 222.67 303.9 216.27 305.27 215.43 306.4 214.66 306.4 214.56 306.4 213.8 302.3 213.2 291.6 212.4 281.78 211.67 277.43 210.97 272.42 209.31 269.5 208.35 269.31 208.34 263.76 208.76 255.14 209.43 227.07 209.33 219.8 208.6 199.01 206.54 192.32 204.34 202.2 202.83 203.96 202.56 206.3 202.17 207.4 201.98 209.93 201.52 215.39 200.86 220.8 200.36 233.11 199.22 238.31 198.76 243.2 198.39 253.55 197.61 254 197.5 254 195.58 254 193.76 255.1 193.92 245.6 194.42M325.88 196.66C325.73 196.8 316.57 197.07 305.51 197.26 287.41 197.57 274.85 198.22 274.19 198.88 273.53 199.53 283.8 199.68 296.2 199.2 303.68 198.91 313.49 198.59 318 198.5 326.18 198.34 328.13 197.98 327.37 196.75 327.12 196.34 326.25 196.29 325.88 196.66M259 198C258.34 198.17 257.15 198.33 256.35 198.35 255.2 198.39 254.84 198.59 254.64 199.3 254.4 200.15 254.35 200.16 253.84 199.49 253.33 198.82 253.01 198.82 247.95 199.4 245.01 199.74 240.62 200.19 238.2 200.4 232.37 200.91 226.97 201.45 220.4 202.18 211.31 203.19 208.69 203.53 206.4 204.05L204.2 204.54 205.6 204.84C219.29 207.72 266.33 208.1 266.72 205.33 266.86 204.41 270.57 203.25 273.68 203.16 275.96 203.09 277.34 202.49 275.32 202.44 273.31 202.39 263.23 200.94 262.22 200.55 261.67 200.34 261.56 199.98 261.73 198.94 261.97 197.47 261.6 197.34 259 198M170.03 200.79L163.05 201 164.03 202.01C165.6 203.63 170.4 207.72 172.99 209.63 174.31 210.6 175.66 211.62 175.99 211.89 177.44 213.04 181.38 215.56 181.52 215.42 181.6 215.34 181.48 213.68 181.25 211.73 181.02 209.79 180.8 206.45 180.76 204.3L180.7 200.4 178.85 200.49C177.83 200.53 173.86 200.67 170.03 200.79M311.53 201.56C304.06 201.94 305.57 202.4 314.31 202.4 318.73 202.4 322.45 202.24 322.57 202.04 323.05 201.28 319.76 201.14 311.53 201.56M307.4 206.03C301.57 206.33 290.89 206.98 284.02 207.45 282.1 207.59 280.9 207.82 281.23 207.99 282.05 208.43 287.67 209.2 290.12 209.21 293.71 209.21 308.3 211.1 310 211.77 310.63 212.02 317.6 206.71 317.6 205.99 317.6 205.56 316.29 205.57 307.4 206.03M271.1 226.99C261.66 227.62 261.72 228 271.26 228 278.2 228 279.23 227.91 280.63 227.22L282.2 226.43 280.2 226.47C279.1 226.49 275.01 226.73 271.1 226.99" stroke="none" fill="#f64b0d" fill-rule="evenodd"/></g>
</svg>